<svg id="Layer_1" data-name="Layer 1" xmlns="http://www.w3.org/2000/svg" width="274" height="280" viewBox="0 0 274 280"><polygon points="106.05 46.55 105.88 46.69 106.13 46.56 106.05 46.55"/><path d="M145.71,108c-.41.59-.81,1.16-1.37,2.09a20.66,20.66,0,0,0,.15,5.58c.19-.2.44-.48.75-.86a17.42,17.42,0,0,1,.6-7Z"/><path d="M122.42,81.7c1.45,5.08,2.11,9.08,3.42,17a70,70,0,0,1,1,10.83c0,1,0,1.79,0,2.58,2.29,4.1,3.38,5.34,3.79,5.71a4.73,4.73,0,0,0,1-1.87c-.9-2.75-1.5-5.43-1.67-6.21-.89-4.16-1.7-10.15-1-23.09.1-2,.24-4.63.51-7.86-.79-2.89-1.7-6.11-2.73-9.75l-.11-.36c-.57-2-.71-2.44-1-3.17s-.68-2.07-1.94-6.3l-.43-1.44c-1.74-5.81-2.61-8.73-4.72-12.38-3-5.24-4.53-5.28-4.52-5.27a5.08,5.08,0,0,0-.59.27,5.17,5.17,0,0,1-3.44.7,4.36,4.36,0,0,1-1.45-.53,26.9,26.9,0,0,0-1.79,5.73c5.65,10.76,8,16.22,8,16.27C119,72.05,121,76.8,122.42,81.7Z"/><path d="M55.15,79.6l.79-.67a31.28,31.28,0,0,1,2.21,2.8c1.06.82,2.14,1.74,3.23,2.73,10.26,9.38,21.12,17,29.84,23.07,13,9.07,21,14.65,19.1,20.09l.79-.31c.82-.37,5-2.39,6-6.12a6.17,6.17,0,0,0,.22-1.6l-.12-.06.08-.77a8.39,8.39,0,0,0-.19-1.07c0-.12-.16-.35-.28-.58L115,113.75l.53.32c-2.63-4.46-8-9.58-14.37-15.77A46.36,46.36,0,0,0,92.07,91,190.8,190.8,0,0,1,74.51,78.2c-3.76-3-12.81-8.85-16.84-7.87a6.15,6.15,0,0,0-2.74,1.49,5.14,5.14,0,0,0-1.22,3c0,1.4.69,2.32,2.22,4.1Z"/><path d="M204.83,115.34,201.69,117l-.36.3-5.56,3-5.1,2.78-2.38,1.35c-8.64,5-15,8.49-19.69,11.07s-8.06,4.45-9.86,5.67l-.37.27-.51.39a16.41,16.41,0,0,0,4.49.89l.37,0c.86.07,1.87.12,2.95.15l6.16-.83-1.5.75a77.28,77.28,0,0,0,8.3-.85,28,28,0,0,0,4.13-.92l-.69-.12,4.25-1.25c.33-.09.77-.22,1.25-.39l2.19-.9.07,0c3.67-1.43,8-3.08,14.23-5.37,4.14-1.51,15.15-5.53,24.13-11.21a27.6,27.6,0,0,0,7.95-9.2c.63-1.15.57-1.51.54-1.59a2.36,2.36,0,0,0-.73-.48,4.13,4.13,0,0,1-2.35-2.5,4.18,4.18,0,0,1,.81-3.51,10.76,10.76,0,0,0-2.75-.31c-5,.06-8.61,2-11.82,3.79l-.49.27a27,27,0,0,1-4.66,2.22c-.88.29-2.08.69-9.86,4.8Z"/><path d="M74,139c2.09.75,4.18,1.32,6.12,1.83l7.42,2H86.24c7.36,2.07,9.57,2.22,12.07,1.09a12.4,12.4,0,0,0,3.51-2.48l-.1,0,1-1.31a8.1,8.1,0,0,0,.9-1.37L104,138l.29.07a7,7,0,0,0,.81-4.62,2.4,2.4,0,0,0-.74-1.3h-.07l-.51-.36a4.78,4.78,0,0,0-1.17-1l-.21-.13a19.11,19.11,0,0,0-2.27-1.06l.07-.21c-2.24-1.22-5.51-2.82-10.18-5-7.57-3.52-12.2-5.68-15.93-7.17l.53.52-5-2a13.83,13.83,0,0,0-1.53-.53l-.33-.09c-.52-.14-1.07-.25-1.62-.34l-.28,0-.23-.19h0c-4.05-1-9.54-2.22-17.1-3.84-4.12-.88-9.24-2-14.31-.08-2.23.84-3.78,2-4.48,3.36a6.62,6.62,0,0,0-.48,4,8.65,8.65,0,0,0,3,5,11.82,11.82,0,0,0,5,2.53,65.53,65.53,0,0,1,11,4.25h0c2.43,1.11,4.94,2.25,7.45,3.13,7,2.43,12.46,4.36,17.71,6.07Z"/><path d="M29.12,157.68a81.15,81.15,0,0,1,8.32-2.43A62.84,62.84,0,0,1,48,154.38l.86,0c3.95-.08,7.73-.36,15.26-.94,10.18-.77,19-2,19.07-2l.8-.11a77.76,77.76,0,0,1,14.62-1c4.13.14,6.88.59,8.56,1.4,1.62-.81,2-1.62,2.15-2.17.53-2-.9-4.6-2.59-6.19a6.93,6.93,0,0,0-.92-.72,16.8,16.8,0,0,1-5.91,4.68,11.3,11.3,0,0,1-4.81,1c-2.81,0-6.11-.81-12-2.52-3.63-1.06-6.92-2.06-10.32-3.17l-1.2-.08c-1.88-.15-3.81-.3-8.25-.31a149.16,149.16,0,0,0-21.18,1.51A59.76,59.76,0,0,0,27,148.69c-1.48.7-3.07,1.62-3.55,3.13a4.31,4.31,0,0,0,0,2.44,6.36,6.36,0,0,0,2.14,3,15.43,15.43,0,0,0,1.48,1.11C27.69,158.16,28.34,157.93,29.12,157.68Z"/><path d="M64,108.23c1.35,1.08,2.47,2,3.46,2.8,1.89.5,3.47,1,4.94,1.48,4.52,1.56,9.44,3.86,19.26,8.43,7.35,3.42,11.13,5.36,13.43,6.92a3.17,3.17,0,0,0,1.59-1.32c1.2-2.73-8.37-9.41-17.62-15.88-8.82-6.17-19.79-13.84-30.21-23.36l-.18-.17-.27-.39c-.49-1.36-2.51-2.95-5.27-4.15s-4.94-1.47-5.38-1.28a5.65,5.65,0,0,0-2.18,2.75,6.86,6.86,0,0,0-.19,3.64,16.35,16.35,0,0,0,4.27,8c2.8,3.09,5.44,5.44,12.26,10.91Z"/><path d="M100.76,92.72c.89.78,1.88,1.69,3.06,2.83,8.69,8.38,15.6,15,17.05,21.46a6.39,6.39,0,0,0,.82.24,1.84,1.84,0,0,0,1,0c.39-.56.34-4.28.3-7.27,0-.23,0-.57-.1-1l-.74-5.83.54,1.06c-.21-2.18-.48-3.83-.64-4.83-1.31-7.91-2-11.85-3.34-16.72-1.33-4.64-3.34-9.3-7.34-18.57-.11-.24-1.86-4.23-5.67-11.69l-.08.41-1.36-3.13c-.12-.27-.27-.59-.44-.93l.53-.57-.65.35c-.2-.37-.42-.76-.7-1.18l-.24-.36,0-.16a25.45,25.45,0,0,0-1.73-3c-.67-.3-1.61-.74-4.89-5.14a2.36,2.36,0,0,0-1.11-.88,2.63,2.63,0,0,0-1-.13c0,.19.12.39.16.51.32.94.85,2.52-.22,3.85a3.56,3.56,0,0,1-3.54,1,2.51,2.51,0,0,0-1.4,0s-.56.45-.94,3.26a25.13,25.13,0,0,0,.08,7.24A105.93,105.93,0,0,0,91.25,66c3,9.21,4.58,13.83,6.26,18.21C98.78,87.58,99.85,90.38,100.76,92.72Z"/><polygon points="215.24 69.09 215.24 69.09 215.24 69.09 215.24 69.09"/><polygon points="158.09 140.38 158.09 140.38 158.09 140.38 158.09 140.38"/><path d="M215.24,69.09l.44.94-1.08.62a13.72,13.72,0,0,0-1.39.95l-1.18.94c-.72.61-1.34,1.21-1.85,1.71-24.18,23.73-36,39.21-36.13,39.37-4.6,6.08-8.24,10.73-10.92,14.16L163,128l-.31.39,2.49-1.7-6.45,6.9a11.37,11.37,0,0,0-1.21,1.67c-.29.46-.58.91-.9,1.34l-.19.25a4,4,0,0,0-.32.64,2.78,2.78,0,0,0,.76.17l.31,0c1.95-1.27,5-3,9.6-5.49,4.37-2.41,11-6.05,19.61-11,3.95-2.27,8.44-4.76,13-7.2a105.93,105.93,0,0,0,8.49-10.33c3.75-5.15,6.48-10.3,11.83-20.81a22,22,0,0,0,2-7.22,6.24,6.24,0,0,0-.21-3.2,5.14,5.14,0,0,0-2.78-2.84,3.94,3.94,0,0,0-2.81.37Z"/><path d="M162,147.54a10.43,10.43,0,0,1,2.81-.82c-.68,0-1.35-.05-2-.1-.7.37-1.28.69-1.77,1Z"/><path d="M133.82,106.13l.93,6c.09.61.19,1.24.3,1.84a30.51,30.51,0,0,0,1.68,4.39c0-.09.05-.18.07-.26a41.52,41.52,0,0,1,3.82-9.22l0-.17.42-.61c.64-1,1.08-1.68,1.53-2.31l.16-.24,2-6.31v3.07c2.31-4.35,3.48-9.08,4.61-14.26.4-1.81.78-3.62,1.15-5.45l-.84,1.85,1.77-8.81c.5-2.47.91-4.77,1.23-6.83l.08-.27.57-1.29c.32-2,.52-3.36.6-3.94,1.14-8,1.68-13.69,1.29-20.58-.28-5.07-1.12-11.35-3.48-12.45-1.85-.86-4.37.36-4.86.62-3.34,1.74-4.55,5.65-6.24,11.9-3.24,11.89-4.86,17.84-5.85,24.34-.59,3.81-1,7.53-1.38,11.37l.12.43,0,.22a13,13,0,0,0-.2,2.57v.11l0,.12a11.24,11.24,0,0,0-.21,2.17V92l-.39-1.46c-.3,8.88.21,13.76.86,17.2Z"/><path d="M164.68,55.12c.11-.43,2.77-10.9,11.64-22.62.24-.33.49-.64.72-.93a.64.64,0,0,0-.3-.18h0c-1.09,0-3.27,2.73-4.72,4.54-2.9,3.64-4.45,7.13-6.94,13l-.17.41c-2,4.66-3,7.07-4,9.53-1.3,3.31-2.59,6.42-3.94,9.47-.73,4.55-2,11.68-3.82,20.11A231.8,231.8,0,0,0,164.68,55.12Z"/><path d="M155.49,92.77c-2.71,6.51-5.14,12.33-6.12,16.67L149,113a3.23,3.23,0,0,0,0,.77,4.22,4.22,0,0,0,.06.42,2.6,2.6,0,0,0,.21.68l.26.54,0,0a2.89,2.89,0,0,0,.66.84,7.59,7.59,0,0,0,4.35,1.57l.58-.09a6.07,6.07,0,0,0,1.68-.31l1-.33c1.52-.85,3.12-2.47,5.64-5.3,6.87-7.69,10.32-11.55,12.3-14.8s3.59-6.91,6.31-13.43l-.38.41,2.48-5.81c.39-.88,1.26-2.92,2.06-5l.2-.33c1-2.61,1.85-5,2.67-7.77a116,116,0,0,0,3.7-17.86,45.82,45.82,0,0,0-.16-12A18.74,18.74,0,0,0,191,29.85a7.81,7.81,0,0,1-1.12.21,5.79,5.79,0,0,1-2.74-.07,4.26,4.26,0,0,1-1.68-1c-.46.14-1.66.7-3.74,3l.21.42-.74.51a2.94,2.94,0,0,0-1,1l-1,1.87-.21-.49a65.57,65.57,0,0,0-10.65,20.81C164.75,70.61,159.62,82.9,155.49,92.77Z"/><path d="M189.68,74.94c-.9,2.32-1.93,4.81-3.23,7.93-3.39,8.16-5.09,12.25-7.5,16.2-2.17,3.54-5.67,7.47-12.66,15.29-3.48,3.9-5.89,6.37-9.25,7.14-2.33,6.43-2.78,10-2.63,11.41,1.22-1.72,3-4,5.52-7.23s6.34-8.11,11.08-14.37c.11-.15,11.83-15.58,36.5-39.78A25.35,25.35,0,0,1,214,66.6l.76-1.23A17.77,17.77,0,0,0,216.29,62c.72-2.14.63-3.1.48-3.71,0-.08-.05-.15-.07-.22a4.49,4.49,0,0,1-.8.24c-.59.12-2.61.4-3.75-1a2.68,2.68,0,0,1-.58-1.77,12.93,12.93,0,0,0-2,.64c-4.12,1.64-8.64,5.38-12.73,10.52-2,2.57-4.22,5-6.33,7.33Z"/><path d="M109.39,176.61a37.25,37.25,0,0,1,3.73-3.11c.66-4.28.15-5.8-.11-6.11l-.19.12a46.35,46.35,0,0,1-3,8.16c-.18.37-.36.72-.54,1.06Z"/><path d="M185.89,192.43c-1.09-1.34-2.17-2.67-3.28-4-1.26-1.51-2.38-2.9-3.39-4.17a103.09,103.09,0,0,1-9.81-5.3c-6.54-4-11.35-8.34-14.31-13h0a14.92,14.92,0,0,0-4.86.69,3.54,3.54,0,0,0-.8.38c.21.29.54.7.78,1,.73.9,1.52,1.93,2.42,3.27a25.59,25.59,0,0,1,4.95,5c2.85,3.91,3.29,7.26,4.1,13.34l.1.72c.8,1.37,1.72,2.89,2.85,4.74A126.9,126.9,0,0,0,175.55,211c5.39,6.56,8.24,8.54,11.09,9.6a15.3,15.3,0,0,0,6.33,1,8.07,8.07,0,0,0,4.44-1.2,6.6,6.6,0,0,0,2.3-2.85,8.12,8.12,0,0,0,0-5.36c-1.29-4.86-4.24-8.28-7.36-11.9l-.44-.5c-1.85-2.15-3.67-4.39-5.43-6.56Z"/><path d="M161,208.05c-.34-1.3-.71-2.75-1.4-6.5-.72-4-1.17-7.1-1.55-9.9l-.14-.24,0-.24a33.59,33.59,0,0,0-.7-4.9l-.95-4.42a13.64,13.64,0,0,0-1.79-3.28,20.7,20.7,0,0,0-3.33-3.56,10.81,10.81,0,0,0-1.06-.77l-.28-.26a6.51,6.51,0,0,0-3.34-1.39,1.41,1.41,0,0,0-.5.08c-1.44.58-2.25,5.78-3.37,13a68.24,68.24,0,0,0-.83,7.12,83.36,83.36,0,0,0,.83,15.16c.19,1.48.63,3.85,1.47,7.92l.2.56,0,.23c.58,2.87,1.36,6.53,2.34,11.1a53.32,53.32,0,0,0,5.28,14.77,15.48,15.48,0,0,0,2.32,3.2,5.24,5.24,0,0,1,1-.81,5.65,5.65,0,0,1,3.35-1,4.23,4.23,0,0,1,2.36.88,30.35,30.35,0,0,0,1.55-6.62,88.3,88.3,0,0,0-.41-25.1A49.66,49.66,0,0,0,161,208.05Z"/><path d="M144.53,169.14a4.92,4.92,0,0,1,1.49-.35,3.23,3.23,0,0,1-.41-2.95,5,5,0,0,1,3.28-2.77,16,16,0,0,1,4.26-.83,4.76,4.76,0,0,1,0-3.93c.7-1.37,2.12-2.18,4.31-2.46a8.89,8.89,0,0,1,.92-4.42c-1.42-.1-2.89-.52-3.33-2-.37-1.22-.11-2.28,2.11-3.88-1.88-.68-3-1.65-3.27-3a3,3,0,0,1,.12-1.92,3.8,3.8,0,0,1-1.18-1.07,3.21,3.21,0,0,1-.48-3c-2.46-1.77-2.25-6.69.65-15a11.06,11.06,0,0,1-5.35-2.37,5.62,5.62,0,0,1-.69-.69c-1.41,1.3-2.61,1.67-3.84,1.22a3.35,3.35,0,0,1-1.91-1.94c-.06-.14-.12-.29-.17-.44-.23.69-.41,1.3-.56,1.81-.68,2.26-1.21,4-3.13,4.23h-.24c-1.31,0-2.46-1-3.58-3a4.11,4.11,0,0,1-2.33,1.35c-1.3.23-2.56,0-4.87-3.22a3.81,3.81,0,0,1-1.49,2A5,5,0,0,1,121,121a10.43,10.43,0,0,1-.24,1.19c-1.46,5.26-6.59,7.91-8.13,8.59a15.66,15.66,0,0,1-4,1.17c.06.2.12.41.17.63a10.4,10.4,0,0,1-1,6.9,10.29,10.29,0,0,1,1.48,1.15c2.52,2.37,4.63,6.36,3.67,10a6.72,6.72,0,0,1-3.34,4.2,6.19,6.19,0,0,1,.15,1.51,3.09,3.09,0,0,1,2,.52c1.62,1.05,2.23,3.32,1.82,6.76a3.5,3.5,0,0,1,1.21.42c1.77,1,2.57,3.2,2.42,6.79.93-.54,1.86-1,2.8-1.49,3.84-1.88,7.16-3.27,9-1.27a2.8,2.8,0,0,1,.69,1.36h0a2.72,2.72,0,0,1,.69.09c1.76.46,2.36,1.8,2.35,6.42,2-2.83,4.44-5.12,7-4.53a3.64,3.64,0,0,1,1.78,1A5.56,5.56,0,0,1,144.53,169.14Z"/><path d="M138,192.54a74.73,74.73,0,0,1,.86-7.46c.43-2.71.79-5,1.15-6.91-.5-2.76-1.06-3.08-1.08-3.09s-1.83.25-6.46,8.68v.12l-.24.54c-.11.12-.23.28-.36.45l-.14.28c-.26.49-.52,1-.79,1.51-3.75,7.27-5,13.5-7,22.92a180.85,180.85,0,0,0-3.24,24.25c-.06,1.09-.09,2.06-.11,2.93l.29-.63-.15,5.2a11.56,11.56,0,0,0,0,1.19l.1,1.23c0,.27.06.53.1.76l.08.37-.1.18a18.57,18.57,0,0,1,0,2.78,3.32,3.32,0,0,0,.13,1.28c.23.75.87,1.84,1.49,2a8.8,8.8,0,0,0,1.9-.4c.61-.15,1.06-.31,1.21-.36a11,11,0,0,0,3.8-2.68c2.76-2.95,4.76-8.18,5.52-10.14A97.11,97.11,0,0,0,138.55,227a70.35,70.35,0,0,0,1.83-10.19c-.89-4.28-1.35-6.8-1.56-8.4A87.66,87.66,0,0,1,138,192.54Z"/><path d="M87.38,169.44c3.16-2.19,6.68-4.38,12.55-8,2.62-1.63,4.26-2.62,5.54-3.33a4.49,4.49,0,0,0,.5-2.28l-.19-.22a1.46,1.46,0,0,0-.53-.39,3.84,3.84,0,0,0-1-.3l-3.28-.54q-1.16-.1-2.55-.15a75.17,75.17,0,0,0-13.95.92l-.82.11c-1,.13-9.53,1.26-19.29,2-7.61.58-11.43.87-15.49,1h-.86a60.91,60.91,0,0,0-10,.81c-1,.18-3,.79-6.38,1.86l.22.11-2.6.75c-.41.1-.74.19-1,.28-1,.4-1.37.72-1.58,1.09a3.24,3.24,0,0,0-.06,2.38c.35,1,1.25,1.84,4.65,3.28a47.51,47.51,0,0,0,9.48,2.92,85.35,85.35,0,0,0,12.93,1.68,92.76,92.76,0,0,0,16.39-.75c3.24-.38,7.06-1,10.76-1.77C83.3,170.32,85.45,169.87,87.38,169.44Z"/><path d="M136.52,5.12a135,135,0,1,0,135,135A135,135,0,0,0,136.52,5.12Zm96,161.49a21.4,21.4,0,0,1-4.4.67,6,6,0,0,1-.46,1,8.44,8.44,0,0,1-3,2.81,12.63,12.63,0,0,1-5.71,1.89,20.74,20.74,0,0,1-3.67.06c7.61,5.34,8.52,8.71,8.4,11.08a11.91,11.91,0,0,1-1.89,5.52,12.39,12.39,0,0,1-6.28,4.62,17.05,17.05,0,0,1-6.23,1.14,23.49,23.49,0,0,1-4.6-.5,25.5,25.5,0,0,1-7.32-2.6,99.45,99.45,0,0,0-10.76-4.93l2.41,3,.19.23c1.79,2.2,3.63,4.48,5.5,6.65l.43.5c3.27,3.79,6.65,7.7,8.17,13.41a11.6,11.6,0,0,1-.17,7.79,10.55,10.55,0,0,1-3.65,4.54,11.71,11.71,0,0,1-6.37,1.87,19.2,19.2,0,0,1-7.91-1.2c-3.44-1.29-6.76-3.54-12.7-10.76a118.94,118.94,0,0,1-9.33-13.14l.12.63c.66,3.61,1,5,1.33,6.21a52.37,52.37,0,0,1,1.1,5.33,92.11,92.11,0,0,1,.43,26.22c-.91,7-2.6,10.4-5.15,10.42a3.21,3.21,0,0,1-2.17-1c-.33-.3-.44-.38-.57-.38a2.92,2.92,0,0,0-1.1.44,2.36,2.36,0,0,0-.61.54,2.94,2.94,0,0,1-1.44,1,2.63,2.63,0,0,1-.8.13c-1.82,0-3.79-1.83-5.85-5.42a57.22,57.22,0,0,1-5.7-15.86l-.35-1.63-.27,1.07a100.06,100.06,0,0,1-3.72,10.76c-1.33,3.47-3.41,8.36-6.34,11.49a14.8,14.8,0,0,1-5.28,3.66c-.19.07-.78.28-1.56.48a11.7,11.7,0,0,1-2.8.52,4.9,4.9,0,0,1-.77-.07c-2.36-.45-3.85-2.72-4.41-4.55-2.09,2.35-4.24,3.39-5.89,2.92-.15,0-.36-.12-.64-.23a9.65,9.65,0,0,0-2.17-.68c-.42-.08-.74-.12-1-.15a15.06,15.06,0,0,1-1.75-.29,13.68,13.68,0,0,1-3-1c-2.76-1.47-3.2-5.56-1.73-16.2.43-3.09.87-6.3,1.93-11,.36-1.6,1.19-5.29,2.42-9.31-.85.92-1.7,1.82-2.57,2.71a109.12,109.12,0,0,1-10.09,9.45c-1.78,1.46-4.3,3.16-9.33,6.54-5.31,3.59-9.18,5.38-11.29,3.55a4,4,0,0,1-.88-1.18c-.18-.35-.23-.41-.33-.46s0,0-.21,0a3.43,3.43,0,0,1-1.07-.23,23.58,23.58,0,0,0-2.34,2.22,22.17,22.17,0,0,1-5.36,4c-1.6,1-3.76,1.78-5.1.71a2.6,2.6,0,0,1-.88-1.46,3.67,3.67,0,0,1-1.47-.39c-2.23-1.19-2-4.57-1.71-6.47a21.67,21.67,0,0,1,3.21-8h-.12a8.18,8.18,0,0,1-8.2-5.52c-1.44-4.14,1.1-8.31,2.47-10.55a108,108,0,0,1,9.95-13.77c5.49-6.43,8.25-9.66,11.47-12.8,1.92-1.88,4.85-4.6,8.63-7.69-3.38.66-6.77,1.21-9.7,1.55a95.58,95.58,0,0,1-17,.77,90.24,90.24,0,0,1-13.46-1.74,52.05,52.05,0,0,1-10.26-3.15c-4.14-1.76-5.9-3.19-6.74-5.47a7,7,0,0,1,.31-5.57,5.35,5.35,0,0,1,.36-.56l-.59-.47a10.07,10.07,0,0,1-3.36-4.95,8.05,8.05,0,0,1,0-4.59c1.06-3.3,4.21-4.78,5.56-5.42A61.09,61.09,0,0,1,41.85,140a149.21,149.21,0,0,1,18.55-1.5l-5.88-2.05c-2.72-.95-5.31-2.13-7.82-3.28a63,63,0,0,0-10.34-4,15.42,15.42,0,0,1-6.64-3.4,12.21,12.21,0,0,1-4.18-7.18,10.21,10.21,0,0,1,.85-6.4c1.13-2.21,3.39-4,6.53-5.19,6.11-2.29,12.09-1,16.45-.08,3.66.79,6.76,1.45,9.44,2-6.5-5.22-9.14-7.61-12-10.78a19.91,19.91,0,0,1-5.2-9.85A10.52,10.52,0,0,1,42,82.7a9.21,9.21,0,0,1,4-4.79,6.38,6.38,0,0,1,4.41-.38,7.08,7.08,0,0,1-.51-2.81,8.91,8.91,0,0,1,2.25-5.5,9.82,9.82,0,0,1,4.63-2.59c6.95-1.67,18.79,7.53,20.12,8.58A184.74,184.74,0,0,0,94.12,87.8c.31.19.6.38.88.57l-1-2.71c-1.72-4.5-3.25-9.12-6.3-18.33a106.71,106.71,0,0,1-3.1-13,28.53,28.53,0,0,1-.11-8.44c.44-3.32,1.26-5.12,2.73-6a5.21,5.21,0,0,1,3.46-.61,4,4,0,0,1,.27-3.84c1.22-1.63,3.66-1.74,5.42-1.15a6.13,6.13,0,0,1,3,2.21c1.81,2.42,3,3.78,3.56,4.05a3.3,3.3,0,0,1,1.33,1.08c1.15-3.57,2.54-5.31,4.22-5.31a3,3,0,0,1,1.87.79c.24.2.33.27.51.3s.47,0,1-.33a5.8,5.8,0,0,1,1.7-.64c3.55-.58,6.52,3.78,8.45,7.12,2.33,4,3.3,7.26,5.06,13.15l.44,1.48c1.25,4.16,1.65,5.38,1.92,6.2s.4,1.21,1,3.31l.31,1.1c.1-.74.21-1.48.33-2.23,1-6.72,2.66-12.75,5.93-24.76,1.71-6.27,3.18-11.69,8.16-14.29,1.38-.72,4.95-2.22,8.24-.69,2.44,1.14,5,3.9,5.68,15.7a81.76,81.76,0,0,1-.15,11.34c.69-1.66,1.54-3.66,2.71-6.41,2.62-6.17,4.26-9.86,7.47-13.87,2.65-3.32,5.14-6.46,8.36-5.93a4.5,4.5,0,0,1,2.14,1.08c4.08-4.2,6.55-4.06,7.92-3.16a3.31,3.31,0,0,1,.63.57c.18.2.21.22.27.24a3.65,3.65,0,0,0,1-.08,7.25,7.25,0,0,0,1-.2,2.78,2.78,0,0,1,1-.15c3,.1,4.32,4.86,4.89,8.82a49.9,49.9,0,0,1,.18,13,120.62,120.62,0,0,1-3.61,17.67l.91-1.11c4.51-5.68,9.6-9.85,14.32-11.73,2.53-1,5.81-1.78,7.11.23a2.46,2.46,0,0,1,.39,1.21l.18.15a2.52,2.52,0,0,1,1.7-.33c1.39.2,2.38,1.37,2.94,3.46.29,1.11.49,2.79-.56,5.89a22.66,22.66,0,0,1-1,2.48,5.71,5.71,0,0,1,1,.24,9,9,0,0,1,5.1,5,10,10,0,0,1,.46,5,26.14,26.14,0,0,1-2.41,8.54c-5.45,10.71-8.25,16-12.16,21.34-.48.66-1.33,1.83-2.49,3.31a33.37,33.37,0,0,1,5.06-2.27,23.2,23.2,0,0,0,4.06-2l.49-.26c3.42-1.86,7.69-4.18,13.42-4.25h.16c3.92,0,6.22,1,6.82,2.87a3.75,3.75,0,0,1-.76,3.25c-.06.1-.19.29-.27.44.12.08.27.15.36.2a4.77,4.77,0,0,1,2.47,2.44c.73,1.82-.08,3.64-.75,4.85a30.27,30.27,0,0,1-9.24,10.57c-9.33,5.9-20.5,10-24.7,11.51-3,1.09-5.53,2-7.69,2.86l1.94.15c1.76.13,3.58.26,6.95.67s4.43.62,6.54,1c1.93.37,4.52.88,10.13,1.79l.84.13c5.47.89,8.77,1.42,12.85,3.69,3.48,1.93,5.36,4,6.12,6.6h0a9.16,9.16,0,0,1,0,5C242.1,162.26,238.42,165.07,232.57,166.61Z"/><path d="M224,161.58c-1.77-4.22-12.84-5.72-21.73-6.93l-1.31-.18c-4.9-.67-9.28-1.32-13.2-1.91-14.15-2.11-23.45-3.49-25.36-.55-.94,1.48-1.39,3-1.1,3.79a135.61,135.61,0,0,1,14.89,2.44A131.21,131.21,0,0,1,194.88,163c3.27,1.12,6.35,2.34,9.15,3.62,3.77.85,6.24,1.47,7.76,1.94a17.93,17.93,0,0,0,6.86.65,9,9,0,0,0,4-1.31h0a6.83,6.83,0,0,0,1.4-1.11l.26-1a3,3,0,0,0,.22-1.29l0-1.13h0A10.41,10.41,0,0,0,224,161.58Z"/><path d="M235.24,150.24c-3.5-2-6.55-2.44-11.6-3.26l-.85-.13c-5.66-.93-8.29-1.44-10.21-1.81s-3.16-.61-6.32-1-5-.53-6.76-.66-3.19-.23-5.75-.55c-1.16-.14-2.33-.3-3.5-.48l-.21.08c-5.41,2.13-6.86,2.69-10.81,3.32-2,.32-4.88.65-7.95.84,4.29.29,9.83,1.12,17,2.18,3.91.58,8.31,1.24,13.21,1.91l1.31.18c10.87,1.48,22.12,3,24.73,9.23a14.06,14.06,0,0,1,1,3.33,17,17,0,0,0,3.09-.5c4.43-1.17,7.26-3.13,8-5.52a5.3,5.3,0,0,0,0-2.86C239.09,153,237.76,151.64,235.24,150.24Z"/><path d="M193.64,166.61A126.75,126.75,0,0,0,175.43,162c-1.93-.39-3.93-.79-5.88-1.15v0a56.35,56.35,0,0,0-9.4-1.25l-.45-.09c-2.81-.08-3.16.5-3.16.51s-.07.3.36,1.25c.14.32.3.66.48,1h0l.43.54a11,11,0,0,0,1,1.64l1.4,1.91h-.07a43.61,43.61,0,0,0,11.27,9.31c.86.53,1.7,1,2.51,1.49l-1.09-1.49,4.84,3.19a17.12,17.12,0,0,0,3.41,1.76l.26.1.34.44c1.93.87,3.68,1.57,5.58,2.32a105.71,105.71,0,0,1,12,5.44,22.43,22.43,0,0,0,6.27,2.24,15.52,15.52,0,0,0,8.73-.46,8.67,8.67,0,0,0,4.51-3.19A8.2,8.2,0,0,0,220,184c.12-2.73-4.57-6.38-8.52-9A76.59,76.59,0,0,0,193.64,166.61Z"/><path d="M128.68,182.68c.21-3.48.27-5.76.26-7.26-.6,1.14-1.31,2.53-2,3.91L125.06,183c-.1.48-.19.93-.28,1.38a31.17,31.17,0,0,1-2,6.71c-1.48,3.53-3.75,6.52-8.27,12.46-.44.57-1,1.29-1.65,2.11a62.72,62.72,0,0,0-3,7.38,113.05,113.05,0,0,0-3.12,11.42c-1,4.5-1.42,7.48-1.86,10.62-1.48,10.78-.46,12.24-.24,12.42a11.7,11.7,0,0,0,2,.65,9.06,9.06,0,0,0,1.28.21c.45,0,.86.1,1.42.21a13.62,13.62,0,0,1,2.9.9l.11,0c.36-.13,2.09-1,4.59-5.32l0-.39a69.39,69.39,0,0,1-.13-10.14,183.28,183.28,0,0,1,3.31-24.79c2-9.76,3.37-16.2,7.35-23.93C127.89,184.16,128.29,183.41,128.68,182.68Z"/><path d="M93.89,193.87h0l-2.94,2.86c-2,1.94-4,3.82-6.09,5.71-3.25,3-6.61,6.06-9.67,9.32l-.62.67c-3.24,3.46-8.1,8.66-12.94,11.2l-.79,1.21c-1.88,2.79-3.65,5.43-4.23,9a8,8,0,0,0-.07,2.4,3.25,3.25,0,0,1,2.32.9,3.16,3.16,0,0,1,.56.78l.59-.34a20,20,0,0,0,4.54-3.28,31.14,31.14,0,0,1,3.24-3,13.79,13.79,0,0,1,.54-3.71,27.42,27.42,0,0,1,3.11-7.85A86.69,86.69,0,0,1,81.6,206.94C82.31,206.22,87.9,200.57,93.89,193.87Z"/><path d="M59,220.65l.33-.17a8.18,8.18,0,0,0,.89-.44l.3-.18a11.2,11.2,0,0,0,1.93-1.45l5.27-5L67,214.74c1.84-1.75,3.51-3.53,4.8-4.91l.63-.68c3.15-3.35,6.56-6.49,9.87-9.52,2-1.86,4-3.72,6-5.63l3-2.86c10.68-10.36,12.9-12.52,15.13-17.13.52-1.08,1-2.22,1.46-3.39l.62-2.06a26.93,26.93,0,0,0,.79-2.9l.08-.37.16-.13c.62-2.85.51-4.42.31-5a11.26,11.26,0,0,0-1.45.67l0,0-.32.19a23.58,23.58,0,0,0-3.37,2.05l-6.17,4.35,1.07-1.32-3.21,2-2,1.56a13.72,13.72,0,0,1-3,1.68l-1.81,1.24-.13.25-.39.11c-1.27.89-2.48,1.78-3.71,2.74a132.44,132.44,0,0,0-11,9.52c-3.07,3-5.78,6.17-11.17,12.49a103.76,103.76,0,0,0-9.66,13.33c-1.43,2.37-2.9,5.07-2.12,7.32a5,5,0,0,0,1.42,2,5.54,5.54,0,0,0,3.7.93h0a7.31,7.31,0,0,0,2.55-.68Z"/><polygon points="69.68 233.41 69.69 233.41 69.69 233.41 69.68 233.41"/><path d="M112.22,250.53l.32-1h0Z"/><polygon points="122.36 182.26 122.36 182.26 122.36 182.26 122.36 182.26"/><path d="M110.08,202.93l.48-.45,1-1.26c2.48-3.26,4.08-5.37,5.33-7.23.92-1.68,1.83-3.34,2.65-4.88a28.79,28.79,0,0,0,1.54-5.48c.09-.49.19-1,.3-1.5l.13-.51a31.82,31.82,0,0,1,2.29-6.64c.34-.74.66-1.42,1-2s.6-1.26.87-1.88a30.1,30.1,0,0,0-3.91,1.66,43,43,0,0,0-5.08,3v0l-.38.31a13.65,13.65,0,0,0-2,1.56l-2.51,2.4.11-.45a134.59,134.59,0,0,0-9.32,10.19c-1,1.13-1.91,2.25-2.94,3.45-7.44,8.57-15.23,16.39-15.3,16.46a84.93,84.93,0,0,0-9.68,12.15A25.89,25.89,0,0,0,72,228.5a10.79,10.79,0,0,0-.43,2.56l.35.14a3.66,3.66,0,0,1,.79.31l.06,0,.26.1,0,0a4.53,4.53,0,0,1,1.62,1.83c.58-.12,2.32-.71,6.71-3.67,4.93-3.32,7.4-5,9.05-6.34a107.42,107.42,0,0,0,9.73-9.11l.78.69-.75-.72c4.23-4.36,7.5-8.25,9.52-10.77Z"/></svg>
