<svg id="Layer_1" data-name="Layer 1" xmlns="http://www.w3.org/2000/svg" width="112" height="114.6" viewBox="0 0 112 114.6"><defs><style>.cls-1{fill:#fff;}</style></defs><path class="cls-1" d="M58.59,47.91c-1.51,0-2.69-5.13-2.91-6.17h0c-.42-2-.81-4.83-.48-11a89.58,89.58,0,0,1,.95-9.67A106.86,106.86,0,0,1,59,9.17c.79-2.91,1.47-5.42,3.68-6.58a4.19,4.19,0,0,1,3.53-.32c1,.46,2.15,1.68,2.45,7.15A47.86,47.86,0,0,1,68,19.6c-.13.9-.83,5.71-2.22,12-.69,3.17-1.41,6-3.22,8.67l-.25.37c-.2.28-.4.57-.68,1a18.15,18.15,0,0,0-1.92,4.51c-.31,1-.49,1.63-1.08,1.69ZM56.5,41.56c.69,3.23,1.69,5.39,2.1,5.51,0-.07.19-.61.33-1.09a19.23,19.23,0,0,1,2-4.71,12.76,12.76,0,0,1,.71-1.08l.25-.36c1.72-2.53,2.42-5.29,3.09-8.38,1.38-6.29,2.08-11.07,2.21-12a48.41,48.41,0,0,0,.63-10c-.32-5.66-1.56-6.24-2-6.43a3.46,3.46,0,0,0-2.79.31c-1.79.93-2.41,2.91-3.26,6.05A106.34,106.34,0,0,0,57,21.19,93.37,93.37,0,0,0,56,30.78c-.32,6.08.06,8.86.47,10.78Z"/><path class="cls-1" d="M67.15,47.12A5,5,0,0,1,64,46c-2.31-2-.5-6.34,2.23-12.89A119,119,0,0,0,72.38,15.6,32.75,32.75,0,0,1,77.91,4.87c2.89-3.82,4.24-3.54,4.7-3.24h0a1,1,0,0,1,.21.2.75.75,0,0,0,.35.25,1.77,1.77,0,0,0,.72,0A3.88,3.88,0,0,0,84.44,2a1.28,1.28,0,0,1,.35-.06c1.21.05,1.72,2.7,1.89,3.83a24.11,24.11,0,0,1,.08,6.15,57.92,57.92,0,0,1-1.83,8.82,75.75,75.75,0,0,1-3,8,55.59,55.59,0,0,1-3.59,7.74c-1,1.67-2.7,3.56-6.06,7.32-1.79,2-3,3.22-4.75,3.37Zm14.9-44.8c-.31,0-1.35.26-3.47,3.05A32.39,32.39,0,0,0,73.2,15.8,120.13,120.13,0,0,1,67,33.44c-2.5,6-4.31,10.32-2.45,11.94a4.19,4.19,0,0,0,2.91.89c1.4-.12,2.35-1,4.18-3.09,3.34-3.73,5-5.6,6-7.21a56.63,56.63,0,0,0,3.52-7.62,73.67,73.67,0,0,0,3-7.9,57,57,0,0,0,1.81-8.69,22.49,22.49,0,0,0-.09-5.92c-.24-1.66-.8-3.1-1.08-3.11l-.09,0a4.57,4.57,0,0,1-.67.13,2.35,2.35,0,0,1-1.09,0,1.58,1.58,0,0,1-.7-.48l-.06-.07Z"/><path class="cls-1" d="M72.83,59.17c-2.81,0-5.36-.39-5.66-1.62-.25-1,.7-1.56,6-4.47,2.26-1.25,5.35-2.95,9.46-5.32,2.47-1.42,5.32-3,8-4.42a34.29,34.29,0,0,1,5-2.41,11.35,11.35,0,0,0,2-1l.23-.12a12.86,12.86,0,0,1,6.24-2c1,0,2.59.1,2.89,1h0a1.35,1.35,0,0,1-.31,1.15c-.19.28-.3.47-.25.63s.2.24.47.39a1.86,1.86,0,0,1,1,.92,2.25,2.25,0,0,1-.34,1.91,14.17,14.17,0,0,1-4.28,4.92A64.74,64.74,0,0,1,91.43,54.3c-3.69,1.34-6,2.23-7.48,2.83a20.57,20.57,0,0,1-5.11,1.57A42.3,42.3,0,0,1,72.83,59.17ZM104.2,38.68h-.09a12.09,12.09,0,0,0-5.85,1.88l-.23.13a12.39,12.39,0,0,1-2.17,1A34.14,34.14,0,0,0,91,44.08c-2.71,1.43-5.55,3-8,4.4-4.14,2.38-7.23,4.09-9.49,5.33-3.65,2-5.66,3.13-5.56,3.54.22.94,5.32,1.37,10.72.52a19.51,19.51,0,0,0,4.93-1.53c1.52-.59,3.8-1.48,7.42-2.81a63.25,63.25,0,0,0,11.74-5.45,13.67,13.67,0,0,0,4-4.61,1.58,1.58,0,0,0,.29-1.2c-.09-.22-.28-.33-.58-.49a1.55,1.55,0,0,1-.89-.9,1.61,1.61,0,0,1,.35-1.32c.1-.15.24-.36.22-.43C106.12,38.91,105.29,38.68,104.2,38.68Z"/><path class="cls-1" d="M93.46,82.64a11.16,11.16,0,0,1-2.13-.23,12.16,12.16,0,0,1-3.39-1.2h0a52.13,52.13,0,0,0-5.64-2.56,44.15,44.15,0,0,1-7.85-3.87c-3.79-2.29-6.32-4.83-7.52-7.54a2.06,2.06,0,0,1-.15-1.76c.83-1.63,4.56-1,10.57.23a61.76,61.76,0,0,1,9,2.28,38.31,38.31,0,0,1,8.89,4.2c4.28,2.78,4.77,4.4,4.71,5.5a5.18,5.18,0,0,1-.82,2.4,5.6,5.6,0,0,1-2.8,2A7.78,7.78,0,0,1,93.46,82.64Zm-5.14-2.18h0a10.74,10.74,0,0,0,3.15,1.13A7.89,7.89,0,0,0,96,81.34a4.67,4.67,0,0,0,2.41-1.73,4.38,4.38,0,0,0,.69-2c0-.47.08-1.88-4.34-4.76A37.67,37.67,0,0,0,86,68.77a62.43,62.43,0,0,0-8.85-2.24c-4.25-.86-9.07-1.82-9.66-.68a1.39,1.39,0,0,0,.16,1c.78,1.75,2.66,4.42,7.19,7.17a44.74,44.74,0,0,0,7.73,3.8,49,49,0,0,1,5.72,2.6Z"/><path class="cls-1" d="M67,108.88c-.9,0-1.87-1.44-2.39-2.36A27.09,27.09,0,0,1,61.86,99c-1.13-5.3-1.75-8.21-1.94-9.66a41.78,41.78,0,0,1-.41-7.57,35.31,35.31,0,0,1,.41-3.55c.73-4.63,1-6.74,2.45-7.3h0c1.84-.75,4.47,1.63,5.69,3.3s1.49,3.25,1.89,6.2c.18,1.4.42,3.14.83,5.43.33,1.77.5,2.44.65,3A23.06,23.06,0,0,1,72,91.42a44,44,0,0,1,.2,12.5c-.22,1.71-.78,4.58-2,4.59h0a1.07,1.07,0,0,1-.71-.35.93.93,0,0,0-.59-.31,1.81,1.81,0,0,0-.82.29,1.71,1.71,0,0,0-.41.36.94.94,0,0,1-.46.35A.85.85,0,0,1,67,108.88Zm-1.66-2.78h0c.72,1.27,1.42,1.94,1.64,1.94h0s0-.05.06-.08a2.4,2.4,0,0,1,.6-.53,2.25,2.25,0,0,1,1.31-.42,1.68,1.68,0,0,1,1.11.52.63.63,0,0,0,.18.14c.32-.11.88-2,1.13-3.86a43,43,0,0,0-.2-12.26,24.1,24.1,0,0,0-.51-2.44c-.16-.61-.33-1.3-.66-3.1-.42-2.31-.66-4.06-.85-5.47-.38-2.89-.56-4.21-1.73-5.82-1.34-1.83-3.55-3.48-4.7-3-1,.38-1.3,2.61-1.93,6.65a34.44,34.44,0,0,0-.4,3.47,40.9,40.9,0,0,0,.4,7.41c.19,1.41.81,4.32,1.93,9.59A26.29,26.29,0,0,0,65.29,106.1Z"/><path class="cls-1" d="M28.34,102.85a1,1,0,0,1-.72-.25,1.33,1.33,0,0,1-.31-.43.87.87,0,0,0-.37-.43.66.66,0,0,0-.3-.07,1,1,0,0,1-.51-.16c-.7-.48-.49-1.72-.22-2.74a12.81,12.81,0,0,1,1.43-3.64,42,42,0,0,1,4.84-6.08s3.79-3.8,7.31-7.87c.5-.58,1-1.11,1.4-1.64a67.38,67.38,0,0,1,4.69-5.11,20.26,20.26,0,0,1,5-3.44l.18.38L50.58,71c1.6-.78,3.1-1.43,3.75-.72.5.55.11,1.35-.48,2.58l-.46,1a15.28,15.28,0,0,0-1.23,3.88,14.27,14.27,0,0,1-.91,3.14c-.68,1.64-1.77,3.07-3.92,5.9a75.09,75.09,0,0,1-5.59,6.45,53.36,53.36,0,0,1-4.82,4.52c-.84.69-2.05,1.5-4.46,3.13C30.69,102,29.28,102.85,28.34,102.85ZM53.53,70.79a7.56,7.56,0,0,0-2.58,1h0A19.21,19.21,0,0,0,46.17,75a63.56,63.56,0,0,0-4.64,5.06l-1.4,1.64c-3.55,4.09-7.32,7.88-7.35,7.91a42,42,0,0,0-4.74,6A13,13,0,0,0,26.72,99c-.41,1.62-.12,1.84-.12,1.85h.11a1.52,1.52,0,0,1,.61.16,1.69,1.69,0,0,1,.73.78,1,1,0,0,0,.12.2c.12.1.73.26,3.82-1.82,2.39-1.61,3.59-2.42,4.4-3.08a54.58,54.58,0,0,0,4.75-4.45,73.36,73.36,0,0,0,5.52-6.38c2.11-2.78,3.17-4.17,3.82-5.71a13.92,13.92,0,0,0,.86-3,16,16,0,0,1,1.28-4.06c.16-.37.33-.7.48-1,.29-.62.7-1.46.61-1.64S53.64,70.79,53.53,70.79Z"/><path class="cls-1" d="M19.45,97a3.79,3.79,0,0,1-2.36-.73h0A3.85,3.85,0,0,1,16,94.67c-.61-1.78.53-3.66,1.15-4.67a51.93,51.93,0,0,1,4.75-6.58c2.65-3.09,4-4.64,5.5-6.14a68.51,68.51,0,0,1,5.39-4.69,91,91,0,0,1,8.18-5.43c3.81-2.37,4.49-2.66,5.18-2.21,1.55,1,.27,5.55-1.13,8.45C43.8,75.84,42.7,76.91,37.4,82L36,83.42c-1,.93-1.94,1.83-2.92,2.74-1.58,1.45-3.21,2.94-4.69,4.52l-.3.32c-2.06,2.2-5.5,5.88-8.32,6ZM45.54,65.62c-.46,0-1.81.79-4.15,2.25a87.5,87.5,0,0,0-8.12,5.39A63.07,63.07,0,0,0,28,77.88c-1.5,1.47-2.82,3-5.45,6.09a50.48,50.48,0,0,0-4.67,6.47c-.76,1.23-1.52,2.66-1.07,4a2.7,2.7,0,0,0,.85,1.2h0a3.15,3.15,0,0,0,2.11.56c2.48-.1,5.9-3.76,7.73-5.72l.31-.32c1.5-1.61,3.14-3.11,4.73-4.57,1-.9,2-1.8,2.91-2.73l1.42-1.37c5.2-5,6.29-6.1,7.4-8.41,1.55-3.19,2.25-6.85,1.43-7.38A.2.2,0,0,0,45.54,65.62Z"/><path class="cls-1" d="M38.32,60a22.59,22.59,0,0,1-5.64-1.19c-4.76-1.38-8-2.5-13.76-4.53-1.27-.45-2.52-1-3.72-1.56a30.58,30.58,0,0,0-5.07-2,6.93,6.93,0,0,1-3-1.52A5.44,5.44,0,0,1,5.28,46h0a4.5,4.5,0,0,1,.36-2.77A5.13,5.13,0,0,1,8.53,41c2.8-1,5.6-.45,7.65,0a101.88,101.88,0,0,1,11,2.67c2.15.74,4.52,1.84,9.24,4,6.72,3.13,7.7,3.9,8,5.28.59,2.53-1.65,5.49-4,6.56A4.89,4.89,0,0,1,38.32,60ZM6.11,45.88A4.65,4.65,0,0,0,7.7,48.56a6.07,6.07,0,0,0,2.62,1.33,32.55,32.55,0,0,1,5.23,2c1.19.55,2.41,1.1,3.64,1.54,5.8,2,9,3.14,13.72,4.51,4.28,1.24,5.65,1.48,7.18.79,2.08-.94,4-3.54,3.57-5.61-.23-1-.93-1.62-7.56-4.71-4.69-2.18-7-3.28-9.16-4A104.12,104.12,0,0,0,16,41.78c-2.05-.44-4.6-1-7.18,0a4.27,4.27,0,0,0-2.43,1.86,3.67,3.67,0,0,0-.28,2.26Z"/><path class="cls-1" d="M59.78,98.51a49.21,49.21,0,0,1-1.77,5.1,17,17,0,0,1-2.77,5.06,5.73,5.73,0,0,1-2,1.42,6.22,6.22,0,0,1-.63.19h0a3.1,3.1,0,0,1-1.14.2c-.6-.12-1-.89-1.1-1.29a2,2,0,0,1-.09-.81,10.52,10.52,0,0,0,0-2,32.55,32.55,0,0,1-.06-4.72,87.78,87.78,0,0,1,1.57-11.75c1-4.59,1.59-7.63,3.43-11.2,2-3.89,3.45-5.86,4.31-5.86l.11,0c.71.16,1,2.06,1.21,4.88a13.71,13.71,0,0,1,.53-3c-.29-1.66-.76-2.53-1.55-2.71-1.66-.38-3.56,2.79-5.36,6.28-1.89,3.67-2.53,6.75-3.5,11.41a89.87,89.87,0,0,0-1.59,11.88,35.5,35.5,0,0,0,.06,4.83,10.94,10.94,0,0,1,0,1.88,2.84,2.84,0,0,0,.12,1.12,2.55,2.55,0,0,0,1.74,1.87l.28,0a5,5,0,0,0,1.23-.24c.35-.09.62-.18.7-.21a6.52,6.52,0,0,0,2.36-1.64,17.23,17.23,0,0,0,2.94-5.35,47.29,47.29,0,0,0,1.79-5.17,33.86,33.86,0,0,0,1-5.39,12.7,12.7,0,0,1-.65-2.5A37.71,37.71,0,0,1,59.78,98.51Z"/><path class="cls-1" d="M42.2,35.34a23.79,23.79,0,0,0-4.6-3.68,89.91,89.91,0,0,1-8.36-6.1c-.24-.2-6.09-4.82-9.27-4a4.33,4.33,0,0,0-2,1.1A3.83,3.83,0,0,0,17,24.94h0a3.39,3.39,0,0,0,.91,2.3,13.2,13.2,0,0,1,2.2,1.42,14.49,14.49,0,0,0-1.08-1.38A3.37,3.37,0,0,1,17.88,25a3,3,0,0,1,.72-1.78,3.49,3.49,0,0,1,1.57-.85c2.3-.56,7,2.61,8.55,3.88a91.82,91.82,0,0,0,8.43,6.16,22.88,22.88,0,0,1,4.47,3.57c5,4.86,8.69,8.38,7.82,11.53a5.83,5.83,0,0,1-3.18,3.28,6.61,6.61,0,0,1-1.73.48,4.54,4.54,0,0,1-1.55.85,3,3,0,0,0-.77-.65c.2,0,.38-.1.55-.16a11.12,11.12,0,0,1-1.8-.34,4.6,4.6,0,0,1,2,1.2l.57,0a7.54,7.54,0,0,0,3.12-.64,6.52,6.52,0,0,0,3.64-3.81C51.25,44.06,47.45,40.4,42.2,35.34Z"/><path class="cls-1" d="M21.19,30.63A137.2,137.2,0,0,0,35.7,41.85c5.26,3.68,9.41,6.58,8.67,8.27a2.62,2.62,0,0,1-1.61,1.15,8,8,0,0,0,1.77,0,2.31,2.31,0,0,0,.61-.77c1-2.32-3-5.1-9-9.3A137.3,137.3,0,0,1,21.74,30c-.5-.45-1-.91-1.59-1.33a8.13,8.13,0,0,1,1,1.89Z"/><path class="cls-1" d="M18,27.24a3.48,3.48,0,0,0-3.07-.33,4,4,0,0,0-1.69,2A4.67,4.67,0,0,0,13,31.42a9.05,9.05,0,0,0,2.39,4.5,46.63,46.63,0,0,0,6.07,5.41l1,.81c.8.63,1.43,1.14,2,1.6a7.42,7.42,0,0,1,1.79.49A42.11,42.11,0,0,0,23,41.48l-1-.8a46.5,46.5,0,0,1-6-5.32,8.36,8.36,0,0,1-2.18-4.09,3.82,3.82,0,0,1,.11-2,3.22,3.22,0,0,1,1.3-1.59c.85-.44,5.16,1,5.83,2.89-.23-.63-.58-1.7-1-1.89S18.48,27.17,18,27.24Z"/><path class="cls-1" d="M37.64,70.35c-1.54.47-3.48.89-6.07,1.42-1.8.37-3.66.68-5.23.86a44.57,44.57,0,0,1-8,.37,41.28,41.28,0,0,1-6.3-.82,23.38,23.38,0,0,1-4.68-1.44c-1.6-.68-2.26-1.17-2.51-1.86a2,2,0,0,1,.06-1.58c.28-.49.8-.7,2-1.09a38.94,38.94,0,0,1,3.81-1.12,28.72,28.72,0,0,1,4.88-.4h.41c1.95,0,3.78-.18,7.44-.46,5-.38,9.24-1,9.28-1l.38-.06a39,39,0,0,1,5.68-.46c.37,0,.75,0,1.15,0,2.38.08,3.72.37,4,.88.42.77-.28,2.22-1.33,3.51a12.12,12.12,0,0,1,1.71-1,3.12,3.12,0,0,0,.36-2.88c-.33-.62-1.13-1.2-4.7-1.32a36.73,36.73,0,0,0-7,.45l-.39.05s-4.27.59-9.22,1c-3.65.28-5.48.42-7.39.46h-.42a29.34,29.34,0,0,0-5,.41,38.94,38.94,0,0,0-3.95,1.16c-1.29.4-2,.67-2.48,1.47a2.87,2.87,0,0,0-.12,2.28c.35,1,1.13,1.56,3,2.34A25.2,25.2,0,0,0,11.89,73a45,45,0,0,0,6.42.83c.71,0,1.38,0,2,0a49.89,49.89,0,0,0,6.12-.42c1.59-.19,3.47-.5,5.3-.88,1.29-.26,2.43-.5,3.46-.73C35.61,71.16,36.55,71.19,37.64,70.35Z"/><path class="cls-1" d="M48.26,73.36c.41-2.22.44-4.33-.66-4.94-.56-.3-1.12-.17-2,.47a13.48,13.48,0,0,1-.39,1.46c.84-.79,1.42-1.23,1.78-1.23a.29.29,0,0,1,.16,0c.72.39.61,2.52,0,5A6.81,6.81,0,0,1,48.26,73.36Z"/><path class="cls-1" d="M26.48,100.56a.71.71,0,0,1,0-.57A21,21,0,0,0,24,102.22a9.54,9.54,0,0,1-2.3,1.67,2.89,2.89,0,0,1-.88.42v0a1,1,0,0,0-.29-.67,1.08,1.08,0,0,0-.85-.29.76.76,0,0,1-.24,0c-.18-.1-.28-.85-.13-1.72a11.26,11.26,0,0,1,2.11-4.53l.21-.31c.69-1,1.07-1.66,1.35-2.15a5.55,5.55,0,0,1-1.66,1.1l-.39.58-.21.32a12,12,0,0,0-2.24,4.86c-.11.63-.26,2.15.57,2.59.41.22.82.09.89.16s0,.06,0,.18a.86.86,0,0,0,.28.61.83.83,0,0,0,.5.16,3,3,0,0,0,1.38-.54,10.43,10.43,0,0,0,2.48-1.82,19.08,19.08,0,0,1,2.22-2A.57.57,0,0,1,26.48,100.56Z"/><path class="cls-1" d="M49.76,81.88c.41-.76.65-1.21.85-1.66-.48.89-1,1.87-1.6,2.93C49.26,82.76,49.51,82.33,49.76,81.88Z"/><path class="cls-1" d="M50.18,105.27c-1.8,3.87-3.26,4.56-3.58,4.45l-.16-.06a5.81,5.81,0,0,0-1.3-.4,4.84,4.84,0,0,0-.64-.1,4.19,4.19,0,0,1-.67-.11,5.15,5.15,0,0,1-1.12-.36c-1-.52-.34-5-.14-6.45s.41-3,.91-5.21A55.41,55.41,0,0,1,45,91.47a40.1,40.1,0,0,1,3.43-7.28l.51-.9a.91.91,0,0,0,.07-.14,22,22,0,0,1-2.21,3,10,10,0,0,1-.9,1,30.66,30.66,0,0,0-1.7,4.06,57.84,57.84,0,0,0-1.54,5.64c-.5,2.26-.72,3.79-.92,5.28-.66,4.75-.5,6.73.57,7.31a6.15,6.15,0,0,0,1.33.44,5.88,5.88,0,0,0,.77.13,5.14,5.14,0,0,1,.57.08,5.72,5.72,0,0,1,1.14.36l.25.09a1.1,1.1,0,0,0,.27,0c.81,0,2.15-.86,3.65-3.65A6.86,6.86,0,0,1,50.18,105.27Z"/><path class="cls-1" d="M55.25,71.12c-.78-.21-1.2.6-2.76,3.66-.28.55-.61,1.21-1,1.94a12,12,0,0,1-.75,3.18l-.14.32c1.15-2.14,2-3.83,2.63-5.06A19.41,19.41,0,0,1,55,72c.27.68.08,4.2-.14,7.26a5.07,5.07,0,0,1,1-1.72C56.22,71.66,55.9,71.29,55.25,71.12Z"/><path class="cls-1" d="M64.45,68a2,2,0,0,0-1.28,1c-.21.6.15,1,.7,1.73a16.88,16.88,0,0,1,1.26,1.74A7.42,7.42,0,0,1,67,74.26c-.17-.39-.38-.81-.66-1.32a18.18,18.18,0,0,0-1.85-2.69c-.4-.51-.61-.77-.56-.92s.16-.3.78-.53a7.72,7.72,0,0,1,2.53-.36,11.44,11.44,0,0,1,1.39.08,4.65,4.65,0,0,1-.51-.87A9.3,9.3,0,0,0,64.45,68Z"/><path class="cls-1" d="M80.93,79.45c.61.73,1.21,1.47,1.8,2.2.87,1.07,1.77,2.18,2.68,3.24l.21.24a14.9,14.9,0,0,1,3.66,5.94,4.31,4.31,0,0,1,0,2.9A3.72,3.72,0,0,1,88,95.57a4.29,4.29,0,0,1-2.4.66,8,8,0,0,1-3.26-.49c-1.45-.54-2.88-1.53-5.55-4.79a60.81,60.81,0,0,1-5.32-7.69c-1.24-2-2-3.28-2.65-4.64a17.47,17.47,0,0,1,.35,2.44c.44.75,1,1.59,1.59,2.64a61.19,61.19,0,0,0,5.38,7.79c2.79,3.39,4.33,4.44,5.91,5a8.75,8.75,0,0,0,3.08.57l.53,0a5.12,5.12,0,0,0,2.82-.81,4.51,4.51,0,0,0,1.58-2,5.13,5.13,0,0,0,.06-3.44,15.72,15.72,0,0,0-3.83-6.27l-.21-.24c-.91-1-1.8-2.15-2.66-3.22l-1.81-2.21c-.76-.9-1.4-1.71-2-2.43a9,9,0,0,1-1.73-.9C78.66,76.63,79.64,77.9,80.93,79.45Z"/><path class="cls-1" d="M101.74,66.3c-1.15-2.74-6.43-3.45-11.54-4.15l-.63-.09c-2.37-.32-4.49-.64-6.38-.92-8.33-1.24-12.14-1.81-13.53.34-.29.46-1.2,2.05-.55,3.25a1.86,1.86,0,0,0,.6.64,28.39,28.39,0,0,1,4.63.62c-1.28-.34-2.48-.67-3.54-1a1.6,1.6,0,0,1-1-.65c-.35-.63.06-1.68.52-2.4,1.09-1.69,5.22-1.07,12.7,0,1.89.28,4,.6,6.39.93l.63.08c4.64.63,9.91,1.35,10.87,3.65a3.31,3.31,0,0,1,.18,2.76,2.84,2.84,0,0,1-1,.9A4.93,4.93,0,0,1,98,71a9.17,9.17,0,0,1-3.5-.33h0c-1.44-.45-4.41-1.1-7.88-1.85,2.32.6,3.58,1.06,3.93,1.72,1.6.37,2.91.68,3.7.93h0a9.85,9.85,0,0,0,2.85.42,8.74,8.74,0,0,0,1-.06,5.58,5.58,0,0,0,2.54-.83,3.73,3.73,0,0,0,1.26-1.19A4.09,4.09,0,0,0,101.74,66.3Z"/><path class="cls-1" d="M70.73,58.23c-3.28,1.68-3.13,2.21-3,2.59.21.7,1.28.67,3,.56H71c1-.84,4.62-.51,6.85-.21a27.27,27.27,0,0,0-5.65-.67l-1,0-.51,0a10.34,10.34,0,0,1-2.08,0c.23-.27,1-.91,3.87-2.24A3.48,3.48,0,0,1,70.73,58.23Z"/><path class="cls-1" d="M109.3,63.06a5,5,0,0,0-2.72-2.88,16.38,16.38,0,0,0-6-1.72l-.41-.07c-2.71-.44-4-.68-4.88-.86s-1.58-.31-3.14-.5-2.48-.25-3.33-.32-1.5-.11-2.71-.25c-.67-.09-1.35-.18-2-.29a9.83,9.83,0,0,1-1.59.58c1.17.21,2.34.4,3.51.54s2,.2,2.75.26,1.71.13,3.29.32,2.08.29,3.08.48,2.18.43,4.91.87l.4.07a15.86,15.86,0,0,1,5.76,1.62,4.28,4.28,0,0,1,2.32,2.38,3.08,3.08,0,0,1,0,1.66c-.39,1.33-1.88,2.39-4.19,3a9.22,9.22,0,0,1-3,.28,2,2,0,0,1-.16.84c.25,0,.51,0,.77,0a10.47,10.47,0,0,0,2.6-.33c2.65-.7,4.3-1.94,4.79-3.58A4.07,4.07,0,0,0,109.3,63.06Z"/><path class="cls-1" d="M99.61,29.44a12.1,12.1,0,0,0,1.11-4,4.33,4.33,0,0,0-.19-2.18h0a3.83,3.83,0,0,0-2.15-2.14c-2.12-.72-4.56,1.67-5.47,2.57C81.09,35.34,75.4,42.8,75.35,42.88c-2.26,3-4,5.25-5.33,6.91-3.47,4.44-4.09,5.24-3.44,6.15a1.9,1.9,0,0,0,1.38.67,4.41,4.41,0,0,0,.52,0h.21a7.46,7.46,0,0,1,1.51-1,6.8,6.8,0,0,1-2.14.18,1.08,1.08,0,0,1-.79-.32c-.29-.4.79-1.79,3.41-5.14,1.3-1.66,3.07-3.93,5.34-6.92,0-.08,5.7-7.5,17.47-19,.66-.64,2.52-2.46,4.07-2.46a1.7,1.7,0,0,1,.55.08,3,3,0,0,1,1.64,1.66,3.54,3.54,0,0,1,.14,1.79,11.22,11.22,0,0,1-1,3.65,72,72,0,0,1-5.75,10.11,48.71,48.71,0,0,1-6.46,7.31L89.34,45a52.58,52.58,0,0,0,4.45-5.38A72.85,72.85,0,0,0,99.61,29.44Z"/><path class="cls-1" d="M66.74,53.69c-.75-.49,0-3.79,1.49-7.65a3,3,0,0,1-1,.17c-1.23,3.15-2.45,7.24-1,8.18a1.22,1.22,0,0,0,.68.19,2,2,0,0,0,.64-.12c.37-.48.64-1.05,1.05-1.49C67.75,53.61,67.07,53.9,66.74,53.69Z"/><path class="cls-1" d="M96.61,22.06c.18-.3.38-.61.58-.93h0a9.06,9.06,0,0,0,.87-1.9,4.26,4.26,0,0,0,.26-2.55c-.21-.8-.55-1.24-1-1.3a.82.82,0,0,0-.62.17.87.87,0,0,1-.35.16,1.33,1.33,0,0,1-.49,0,1.48,1.48,0,0,1,.05-.24,1,1,0,0,0,0-.83c-.49-.74-2.14-.18-2.83.09a17.64,17.64,0,0,0-6.7,5.5c-.94,1.19-2,2.34-3,3.46l-.63.7c-.38,1-.81,2-1,2.44.74-.88,1.5-1.74,2.26-2.58C85,23.13,86,22,87,20.74a16.73,16.73,0,0,1,6.34-5.23,4.68,4.68,0,0,1,1.63-.4h.15s0,.08,0,.12a1,1,0,0,0,.09,1,1.41,1.41,0,0,0,1.33.31,1.72,1.72,0,0,0,.63-.27s0,0,0-.05a1.45,1.45,0,0,1,.31.68A3.33,3.33,0,0,1,97.26,19a9.44,9.44,0,0,1-.78,1.73h0L95,23a7.85,7.85,0,0,1,.72-.5A6.2,6.2,0,0,1,96.61,22.06Z"/><path class="cls-1" d="M78,2.71c-1.25-.21-2.32,1.12-3.56,2.68A25.51,25.51,0,0,0,70.86,12c-1,2.39-1.53,3.59-2,4.82-.89,2.26-1.63,4-2.26,5.36-.17,1.16-.39,2.33-.59,3.32.16-.35.32-.71.5-1.09.8-1.73,1.79-3.89,3.13-7.28.48-1.22,1-2.42,2-4.8a24.92,24.92,0,0,1,3.42-6.38C76,4.74,77,3.53,77.69,3.53h.11c.25,0,.72.3,1.18,1.44a1.9,1.9,0,0,1,.62-.67C79.15,3.36,78.6,2.82,78,2.71Z"/><path class="cls-1" d="M60.78,41.5a9.83,9.83,0,0,0,.25,4,1.13,1.13,0,0,0,.63.67.8.8,0,0,0,.3.06c.55,0,1.17-.54,2.05-1.7a2.21,2.21,0,0,1-.18-1.18c-.82,1.14-1.61,2.12-1.89,2a.62.62,0,0,1-.14-.21c-.34-.77-.34-2.68,0-5.18A3.69,3.69,0,0,1,60.78,41.5Z"/><path class="cls-1" d="M44.74,7.76l.06,0a1.75,1.75,0,0,0,.86.43A2.06,2.06,0,0,0,47,8a1.65,1.65,0,0,1,.43-.18c.36-.06,1.2.22,2.69,2.79a25.05,25.05,0,0,1,2.32,6.07l.21.7c.61,2,.8,2.62.93,3s.19.56.47,1.55c.87,3.06,1.56,5.51,2.08,7.56a6.57,6.57,0,0,1,.11-1.15A7.06,7.06,0,0,1,56.36,27c-.43-1.55-.92-3.3-1.49-5.32-.29-1-.36-1.21-.48-1.57s-.32-1-.93-3l-.2-.69a26.71,26.71,0,0,0-2.4-6.26C50,8.65,48.68,6.71,47.3,6.94a2.75,2.75,0,0,0-.68.26,1.16,1.16,0,0,1-.81.21,1,1,0,0,1-.48-.25.9.9,0,0,0-.56-.27h0c-.94,0-1.71,2.18-2.16,4.6a8.3,8.3,0,0,1,.65,1.2C43.63,10,44.37,8.1,44.74,7.76Z"/><path class="cls-1" d="M57,43c-.34,1.82-.84,3.13-1.46,3.24-.2,0-.91-.33-3.24-4.85,0,.34.06.64.07.8,0,.34,0,.8,0,1.17,1.83,3.3,2.56,3.74,3,3.74a1.57,1.57,0,0,0,.24,0c.79-.14,1.34-1,1.72-2.15A11.61,11.61,0,0,1,57,43Z"/><path class="cls-1" d="M53.15,41.75a34.34,34.34,0,0,0-.47-5.14A68.48,68.48,0,0,0,51,28.43a79.92,79.92,0,0,0-3.61-9.15s-1.18-2.7-3.89-7.87c-1.17-2.22-1.29-2.34-1.68-2.53-.17-.08-.52-.24-1.9-2.1a2.43,2.43,0,0,0-1.19-.89,1.91,1.91,0,0,0-2.05.38,1.57,1.57,0,0,0,0,1.5c.06.18.18.52.12.59a1.41,1.41,0,0,1-.49,0,2.3,2.3,0,0,0-1.55.2h0c-.38.23-.84.73-1.08,2.54a13.09,13.09,0,0,0,0,3.92,52,52,0,0,0,1.47,6.21c1.47,4.43,2.21,6.66,3,8.82.59,1.55,1.1,2.87,1.53,4a5.58,5.58,0,0,1,1.3,1c-.53-1.33-1.2-3.08-2.06-5.32s-1.54-4.34-3-8.8a52,52,0,0,1-1.44-6.06,12.57,12.57,0,0,1,0-3.65c.1-.75.3-1.7.69-1.93a1.46,1.46,0,0,1,1-.09,1.24,1.24,0,0,0,1.25-.29,1.39,1.39,0,0,0,0-1.38c-.1-.28-.21-.6-.11-.73s.68-.23,1.12-.09a1.62,1.62,0,0,1,.77.6c1.51,2,1.92,2.22,2.22,2.36.13.06.22.11,1.3,2.16,2.69,5.14,3.84,7.78,3.86,7.81a79.54,79.54,0,0,1,3.57,9.05,67.62,67.62,0,0,1,1.62,8.12,31.79,31.79,0,0,1,.46,5c0,2.31.06,3.84-.36,4.12a1.23,1.23,0,0,1-.9,0,6.4,6.4,0,0,1-1.8-.8,1.8,1.8,0,0,1,.29,1.12,6.12,6.12,0,0,0,1.33.5,3,3,0,0,0,.63.07,1.63,1.63,0,0,0,.9-.24C53.21,46.06,53.19,44.71,53.15,41.75Z"/><path class="cls-1" d="M44.86,57.09a4.2,4.2,0,0,0-2-1.06,4.2,4.2,0,0,1-.49.74,3.5,3.5,0,0,1,1.87.93,4,4,0,0,1,1.39,3.48c-.24.91-1.16,1.46-2.81,1.92a2,2,0,0,1,.6.19,1.16,1.16,0,0,1,.45.36c1.47-.51,2.29-1.17,2.58-2.26A4.77,4.77,0,0,0,44.86,57.09Z"/><path class="cls-1" d="M6.49,66.4a9.8,9.8,0,0,1-2-1.27,3.48,3.48,0,0,1-1.19-1.71A2.59,2.59,0,0,1,3.3,62a3.43,3.43,0,0,1,2-1.81,29.46,29.46,0,0,1,7.44-2.39A73,73,0,0,1,22.91,57H23c2.17,0,3.11.08,4,.15s1.61.13,3.22.13H31c-1.07-.28-2-.55-3-.89l-.9-.07c-.93-.07-1.89-.14-4.09-.15h-.09a71.7,71.7,0,0,0-10.25.74,29.58,29.58,0,0,0-7.74,2.46A4.25,4.25,0,0,0,2.5,61.71a3.41,3.41,0,0,0,0,1.93h0A4.37,4.37,0,0,0,4,65.77a10,10,0,0,0,1.47,1A2.84,2.84,0,0,1,6.49,66.4Z"/></svg>
