<svg id="Layer_1" data-name="Layer 1" xmlns="http://www.w3.org/2000/svg" width="1094" height="190" viewBox="0 0 1094 190"><path d="M739.86,65.19h12.92l13.64,20.9,13.8-20.9,12.15.28-20,28.66,20.9,30.44H780.5l-14.75-22.29-14.3,22.29H738.81l20.9-30.44Z"/><path d="M1014.38,126.94c2.75-7.53,5.56-15.3,8.44-23,1.92-5.15,3.92-10.26,5.95-15.37q4.26-10.77,8.64-21.5c1.69-4.13,3.46-8.24,5.23-12.34q4.72-11,9.5-21.87c1.87-4.26,3.76-8.52,5.75-12.73a58.81,58.81,0,0,1,3.72-6.85,9.51,9.51,0,0,1,4.61-3.71c2.27-.89,4.54-1.79,6.83-2.65,2.51-.93,5-1.87,7.57-2.69a7.85,7.85,0,0,1,2.7-.23,3,3,0,0,1,3.18,2.78,16.83,16.83,0,0,1-.14,5c-1.34,6.93-2.88,13.81-4.24,20.73q-3.73,19-7.35,38.09c-1.91,10-3.76,20-5.61,30q-3.3,17.85-6.54,35.7-2.47,13.55-4.93,27.08c-1.11,6.12-2.19,12.25-3.29,18.37-.06.34-.13.67-.21,1-.32,1.49-.88,2.77-2.59,3.07a5,5,0,0,1-4.54-2,26,26,0,0,0-3-3.67,77.82,77.82,0,0,0-6.2-5.44,6.74,6.74,0,0,1-2.77-6.95c1.83-11.49,3.51-23,5.39-34.5s3.84-22.82,5.87-34.21c2.69-15.12,5.48-30.22,8.23-45.33a31.9,31.9,0,0,0,.57-4.07c-.52,1.11-1.08,2.2-1.57,3.33-1.46,3.32-2.92,6.65-4.32,10q-4.56,10.89-9.07,21.81c-1.63,4-3.24,7.92-4.79,11.9q-4.89,12.55-9.68,25.12c-2.07,5.42-4.13,10.83-6.09,16.29-3,8.23-5.82,16.49-8.73,24.74-.48,1.36-1,2.7-1.53,4a3.59,3.59,0,0,1-3.15,2.58,3.7,3.7,0,0,1-3.52-2.31,40.5,40.5,0,0,0-5-7c-1.3-1.56-2.55-3.17-3.75-4.81-1.74-2.36-2.11-5.16-2.37-8a177.4,177.4,0,0,1,.11-30.14c.9-12.1,2-24.19,3-36.3.62-7.68,1.12-15.36,1.67-23.05a2.27,2.27,0,0,0-.19-1.14c-.5,1.56-1,3.11-1.49,4.68C993.12,66.58,991.53,71.8,990,77q-4,13.75-7.94,27.52c-1.76,6.16-3.52,12.32-5.23,18.49-2.51,9-5,18-7.45,27.07q-2.57,9.33-5.09,18.65a20.35,20.35,0,0,1-2.65,6.72,5.55,5.55,0,0,1-4.19,2.61,3.62,3.62,0,0,1-3.78-2.64,10.34,10.34,0,0,1,0-6.06c2-8.09,4.07-16.18,6.22-24.23q4.36-16.38,8.91-32.69c1.74-6.28,3.59-12.54,5.41-18.79C976.8,84.77,979.39,75.86,982,67c1.79-6,3.65-12,5.54-18q3.85-12.26,7.83-24.47c.9-2.72,2-5.39,3.06-8,.7-1.73,2.23-2.74,3.73-3.65a25.81,25.81,0,0,1,3.16-1.29c3-1.32,5.91-2.81,9-4a26.76,26.76,0,0,1,6.58-1.63c2.78-.28,4.19,1.17,4.17,4,0,3.46-.11,6.92-.38,10.35-1.29,16.58-3.59,33-5.75,49.52-2.06,15.77-3.9,31.56-4.54,47.46C1014.26,120.5,1014.38,123.83,1014.38,126.94Z"/><path d="M932.44,71.72c3-.3,5.75-.6,8.5-.81a15.93,15.93,0,0,1,3.52.06c3.32.47,4.66,2.68,3.67,5.91a6.84,6.84,0,0,1-2.81,3.84,23.76,23.76,0,0,0-6.43,6.89c-2,3-3.85,6.25-6.91,8.45a7.45,7.45,0,0,1-1,.6,29.14,29.14,0,0,1-7.61,3.15,1.58,1.58,0,0,0-1.33,1.18c-2.86,8.51-5.8,17-8.63,25.51s-5.64,17.05-8.36,25.61c-3.12,9.85-6.13,19.75-9.2,29.63-.22.72-.55,1.41-.83,2.11a3,3,0,0,1-2.82,1.94,3.55,3.55,0,0,1-3.21-1.58c-1.34-1.72-2.72-3.42-4.2-5s-3.22-3-4.65-4.59a16.22,16.22,0,0,1-2.3-3.73c-.73-1.53,0-3.08.38-4.55,2.22-8.08,4.38-16.18,6.8-24.19,3.21-10.63,6.65-21.19,10-31.77l1.33-4.2c-1.3.3-2.4.53-3.49.79-3.49.84-7,1.71-10.47,2.54-4.52,1.07-9.06,2.11-13.58,3.18a26,26,0,0,0-3,.89,1.55,1.55,0,0,0-.78.83c-1.49,4.25-2.95,8.52-4.41,12.78-1.08,3.15-2.17,6.3-3.23,9.46q-4.18,12.44-8.34,24.89c-1.25,3.73-2.41,7.5-3.82,11.18a9.38,9.38,0,0,1-5.62,5.73c-1.34.49-3.77-1.14-4.2-2.87a11.47,11.47,0,0,1,.36-6.39c2.59-8.15,5.17-16.32,7.87-24.44,2.84-8.55,5.82-17.06,8.73-25.59.42-1.24.84-2.48,1.28-3.8l-1.58-.32c-3.32-.64-5.61-2.74-7.67-5.25-1.5-1.84-3.07-3.64-4.74-5.32a6.29,6.29,0,0,0-2.47-1.26c-2.75-.9-4-3.07-4.48-5.64a3.46,3.46,0,0,1,1-2.46A5.31,5.31,0,0,1,836,93.9q4.78-1.61,9.6-3.07c3.66-1.1,7.33-2.12,11-3.17,2.25-.64,4.51-1.24,6.74-1.93a1.72,1.72,0,0,0,1-.87c3.17-8.75,6.28-17.54,9.44-26.3,1.89-5.24,3.85-10.45,5.78-15.67,2.63-7.14,5.22-14.3,7.92-21.42,1.4-3.7,2.88-7.4,4.58-11A7.81,7.81,0,0,1,897,6.21c2.58-.74,4.58.4,4.82,3.06a12,12,0,0,1-.53,4.8c-1.64,4.84-3.49,9.61-5.25,14.41q-4.08,11.08-8.13,22.18-2.75,7.47-5.47,14.94-2.86,7.84-5.74,15.68a10.67,10.67,0,0,0-.26,1c.75-.14,1.4-.25,2-.39,4-.91,8.1-1.85,12.17-2.72,4.77-1,9.55-2,14.32-3a3.5,3.5,0,0,0,2.89-2.51c2.71-7.68,5.53-15.32,8.37-22.95,2.45-6.56,5-13.1,7.48-19.63,2.32-6,4.62-12.1,7.1-18.07a6.62,6.62,0,0,1,4.73-4.16c3.13-.79,6.14-2.07,9.2-3.15,1.81-.64,3.6-1.32,5.42-1.95a5.45,5.45,0,0,1,1.34-.23c1.91-.15,3,.51,3.17,2.41a14.75,14.75,0,0,1-.5,5.25c-1.16,4-2.55,7.85-3.95,11.74q-5,13.83-10.05,27.65c-1.9,5.23-3.85,10.45-5.77,15.67C933.75,68,933.13,69.79,932.44,71.72Z"/><path d="M941.28,138.33l2.93-2.56a3.56,3.56,0,0,1,.8-.6c2.55-1.22,4.72.06,4.57,2.89a11.05,11.05,0,0,1-1.18,4.32c-1,2-2.32,3.72-3.44,5.59a1.87,1.87,0,0,0-.22,1.32c.42,1.49,1,2.94,1.42,4.43.47,1.66.64,3.28-.87,4.62a2.35,2.35,0,0,1-3,.13,6,6,0,0,1-2.4-3.47c0-.21-.18-.4-.67-.89a6.45,6.45,0,0,1-1.12,1.51c-2.72,1.94-5.52,3.87-9.11,3.33a9.3,9.3,0,0,1-7.67-6.11,15.63,15.63,0,0,1,1.17-13.7,43.47,43.47,0,0,1,3.79-5.48c1.5-1.94,3.17-3.74,4.67-5.68a2.13,2.13,0,0,0,.12-1.55c-.51-2.33-1.21-4.63-1.61-7a10.69,10.69,0,0,1,3.42-10c2.57-2.41,7.11-2.67,10.33-.69a7.85,7.85,0,0,1,3.52,8.77,19.84,19.84,0,0,1-2.21,5.3c-1.56,2.62-3.4,5.08-5.1,7.62a1.19,1.19,0,0,0-.24.81C939.87,133.59,940.56,135.89,941.28,138.33Zm-7-1c-1,1.49-1.88,2.73-2.6,4.08a11.65,11.65,0,0,0-1.18,3.27c-.23,1.21.66,2,1.79,1.54a18.26,18.26,0,0,0,3.46-2.08,1.12,1.12,0,0,0,.28-1C935.48,141.31,934.9,139.47,934.25,137.34Zm2.37-15.62a15.94,15.94,0,0,0,1.26-1.51,18.84,18.84,0,0,0,1.84-3.19,1.87,1.87,0,0,0-1.17-2.49c-1.06-.32-1.95.24-2.4,1.48C935.47,117.92,936.07,119.72,936.62,121.72Z"/><path d="M582.14,47l-.76-.22a3.4,3.4,0,0,0-.7,2l1.54-.06C582.19,48.12,582.16,47.54,582.14,47Z"/><path d="M581.43,45.29a10,10,0,0,1,0,1.45l.76.23h0c0,.57.05,1.15.08,1.72a12.63,12.63,0,0,0,5.53-.46,20.56,20.56,0,0,1,2.31-.47c.51-1.91,0-2.46-1.9-2a10.08,10.08,0,0,1-3.42.17l-2.1.83,2.1-.84A2.19,2.19,0,0,1,587,44.87h0a1.63,1.63,0,0,0,1.76-1.48A3.59,3.59,0,0,1,592,40.23a14.4,14.4,0,0,0,1.41-.58c2.06-.72,3.41-2.39,5.2-3.45.26-.51.51-1,.76-1.53,0-.12,0-.24,0-.37,0,.13,0,.25,0,.37.78-.27,1.85-.3,1.28-1.58-.2-.44.22-.72.53-1,1.37-1.35,1.35-1.43-.48-2.41l-.09-4.16,0,0a1.2,1.2,0,0,0-.46-1.62h0l-.21-.49a15.78,15.78,0,0,1-1.24-2.42c-1.28-4-4.69-5.81-8.47-7.22a1.53,1.53,0,0,0-1.27-.08,39.65,39.65,0,0,1-5,1.56c-.41.72-1,.53-1.71.46a15,15,0,0,0-5.42-.29,16,16,0,0,1-3,.53,9.39,9.39,0,0,0-7.76,4.37,21.43,21.43,0,0,0-2.19,6.47h0l0,3.32h0c.53,1.84.51,3.82,1.71,5.47a3.45,3.45,0,0,1,.35,0,.26.26,0,0,1,0,.16.27.27,0,0,0,0-.14s-.23,0-.36,0l.09.37h0l.42,1.25.4,0h0l1,1.6h0a6,6,0,0,1,.7.52,12,12,0,0,0,8.48,3.44,16.42,16.42,0,0,1,2.62.3A2.21,2.21,0,0,1,581.43,45.29Zm14.86-18.45.42-.11a4.44,4.44,0,0,1,2.53,2.11c.21.45.44.88.9.92-.46,0-.69-.47-.9-.92h0a4.46,4.46,0,0,0-2.54-2.11l-.41.11Zm-2.29.69,0,0c.13.43.13,1,.72,1.1a1.24,1.24,0,0,0,.44,0,.91.91,0,0,1-.44,0c-.59-.09-.59-.66-.72-1.1l0,0h0Zm-8.87,8.75a1,1,0,0,1-.51-.09,1.06,1.06,0,0,0,.51.09.9.9,0,0,0,.85-.8,1,1,0,0,0-.09-.51.91.91,0,0,1-.76,1.31Zm-.43-1.83h0a5,5,0,0,1,.56.11A5,5,0,0,0,584.7,34.45Zm-.45-2.18c1.53-.76,3.08-1.52,4.61-2.3a4.42,4.42,0,0,0,.85-.5,4,4,0,0,1-.85.5c-1.53.78-3.08,1.54-4.61,2.3a1.71,1.71,0,0,0,.56.86,1.79,1.79,0,0,1-.57-.86Zm-3.73-3.61a3.5,3.5,0,0,0-.5.75A3.5,3.5,0,0,1,580.52,28.66ZM564,26.78c.11,0,.22.09.26.17h0A.73.73,0,0,0,564,26.78Zm9.38,7.27a4.68,4.68,0,0,1-.21-.6,1.91,1.91,0,0,1,.81-.21,1.84,1.84,0,0,0-.8.21A4.69,4.69,0,0,0,573.4,34.05Zm3.1-2c-1.27.18-2.66.38-3.62-.87a2.66,2.66,0,0,0-1.79-1.09c-2.27-.36-4.55-.73-6.16-2.39,1.61,1.65,3.89,2,6.16,2.38a2.67,2.67,0,0,1,1.79,1.1c1,1.25,2.35,1,3.63.87a.85.85,0,0,0,.76-.53A.85.85,0,0,1,576.5,32.09Zm2.62.64a7.35,7.35,0,0,0-1.06,1.3,2.39,2.39,0,0,1-.75.81,2.33,2.33,0,0,0,.74-.8,6.39,6.39,0,0,1,1.07-1.3h0a1.61,1.61,0,0,0,.29-2.25c-.66,0-1.16-.57-1.85-.46h0c.69-.1,1.2.47,1.85.47l.24-.4-.24.4h0A1.59,1.59,0,0,1,579.12,32.73Zm.77-3h0a8.68,8.68,0,0,1,3.5,2.41h0a8.68,8.68,0,0,0-3.5-2.41Z"/><path d="M580.83,64.31c.06,0,.11.08.15.07s.07-.08.1-.13l-.16-.08Z"/><path d="M570.94,56v.24c.1.07.09.13.06.17l0,0C571.3,56.2,571,56.1,570.94,56Z"/><path d="M567.9,11.61a4,4,0,0,1,3.69.67c.26.14.5.28.77.41a1.24,1.24,0,0,0,1.25.08c.46-.31.22-.74.13-1.14s-.67-1.07,0-1.81a16,16,0,0,0,2,2.36c2,1.59,3.81,1.24,5-1,.3-.59.3-1.4,1.27-1.64.86.75.17,2.09,1.17,2.78l.58,0a6.06,6.06,0,0,0,2-1.92A4.25,4.25,0,0,1,587,9c.47-.31.93-.57,1,.32s.7.55,1.15.36,1.6-.77,1.17-1.22a7.15,7.15,0,0,1-1.87-3.56c-.13-.55-1.26-.58-2-.76l-.18.42,0,.51a4,4,0,0,1-.53,2c-.21.41-.33,1-1,.85s-.38-.66-.32-1c.08-.54,0-1-.66-1.07-.89.72-1.74,1.29-2.71.05A3.79,3.79,0,0,0,580,5.18a.64.64,0,0,0-.18.06A1.36,1.36,0,0,0,579.05,7c.13.47.34.92.46,1.39s.09.89-.46,1-.58-.32-.68-.64-.25-.94-.4-1.41c-.44-1.32-.53-1.39-1.82-.89a5,5,0,0,1-2.58.27,3.76,3.76,0,0,0-3.88,1.43c-.49.74-.88.94-1.39.07l0,0a1.08,1.08,0,0,0-1.48-.37c-1.18.48-1.49,1-1.23,2.12S566.84,12,567.9,11.61ZM571.63,8a1.14,1.14,0,0,1,.54.26,1,1,0,0,0-.54-.25.35.35,0,0,0-.28.2.56.56,0,0,0,0,.26.72.72,0,0,1,0-.26A.4.4,0,0,1,571.63,8Zm-3,2.18h0l-.24-.21.24.21.23-.23h0Zm.23-.23a.54.54,0,0,0-.24-.12A.54.54,0,0,1,568.89,9.91Zm-.48,0a.24.24,0,0,1,.23-.14.24.24,0,0,0-.23.14Z"/><path d="M591.51,6.69c.61,0,.69-.6.75-1.18,0-.32-.12-.8-.67-.79s-.72.58-.7,1.06S591,6.73,591.51,6.69Z"/><path d="M600.25,21.26c-.12,0-.08-.36-.34-.17l.28.24Z"/><path d="M566.12,37.15c-.16,1.35-.16,1.35,1.36,1.64l-1-1.61Z"/><path d="M586.31,5.07l0-.51c0,.05-.11.12-.1.16A1.48,1.48,0,0,0,586.31,5.07Z"/><path d="M612.84,172.92a47.69,47.69,0,0,1-.53-6.86l0-.74,0-.47a74,74,0,0,1-.81-8.79l-.06-1.2,0-1.27c-.72-3.76-.84-7.58-1.33-11.37-.89-6.73-1.71-13.48-2.76-20.2a69.24,69.24,0,0,1-1.14-8.86,37.36,37.36,0,0,1-1.11-6.73c-.12-.32-.24-.65-.34-1a13,13,0,0,1-.59-2.63c-.25-1.24-.51-2.47-.83-3.71a81.76,81.76,0,0,0-2.71-8.65c-.54-1.52-1-2.92-1.46-4.27-.73-2.22-1-3.17-2.46-8a84.68,84.68,0,0,1-2.79-10.39c-.14-.76-.25-1.41-.34-2-.35-.11-.48-.57-.62-.89a40.56,40.56,0,0,1-2.05-5.51c-.26-1-.57-2-.91-3a7.53,7.53,0,0,1-.42-3.9c.28-1.57.41-3.17.59-4.76-.76.15-1.56.25-2.31.47a12.48,12.48,0,0,1-5.53.47l-1.54.07c1.61,1.83,1.88,4.3,3.33,6.21a29.84,29.84,0,0,1,2.35,5.91,21.55,21.55,0,0,1,1.09,2.9c2.93,9.39,4.54,15.27,5.65,18.62,2.43,7.4,3.59,6,5.42,12.67a70.26,70.26,0,0,1,2,12.88,10.22,10.22,0,0,1,.63,3.45c.32,2,.64,4,1.08,6,.76,3.4,1.09,6.85,1.58,10.29.7,5.08,1.32,10.16,2,15.25a15.93,15.93,0,0,1,0,5l0,.63a4.42,4.42,0,0,1,.69,4.67l0,.42.26.89.06.76a35.35,35.35,0,0,1,.77,9.89,6.47,6.47,0,0,0,0,2.06,2.22,2.22,0,0,1,.1,1c-.78,2.66-.28,5.43-.8,8.11a3,3,0,0,0,.26,2,10.46,10.46,0,0,1,.46,1.09,12.26,12.26,0,0,1,6.24.52A18.08,18.08,0,0,1,612.84,172.92Z"/><path d="M62.3,56.19H53.87l-7,26.15H34l7-26.15H32.38l-7,26.15H12.15L10.34,89.1H23.61l-5.34,20.07H4.88L3.15,116H16.46l-6.91,26h8.59l6.91-26H37.88l-7,26h8.43l7-26h13.4l1.8-6.78H48.12L53.49,89.1h13.4l1.8-6.76H55.3Zm-22.61,53H26.86L32.2,89.1H45.06Z"/><path d="M153.83,67.75A42.48,42.48,0,0,0,145,59a33.18,33.18,0,0,0-18.77-5.31q-15.86,0-27.07,12.93t-11.22,36q0,24.39,11.14,35a39.65,39.65,0,0,0,43.1,7.15,30.25,30.25,0,0,0,11.1-10.45q.26,18.91-3,26.29-5.44,12.5-23.07,12.5-11.16,0-16.35-5.15a17.41,17.41,0,0,1-4.44-9.49H90.72q1.19,14.12,11.26,20.75t24.84,6.65q26.53,0,36.09-18.67Q168,157,168,139.59V56.19h-14.2Zm-3.76,52.83q-6.75,15-23.26,15a20.13,20.13,0,0,1-16.82-8.1q-6.27-8.09-6.27-23.58a60.06,60.06,0,0,1,3.16-21.32q6-15.24,22.14-15.25a22.37,22.37,0,0,1,17.81,8.22h0q7,8.22,7,25.26A48.6,48.6,0,0,1,150.07,120.58Z"/><path d="M259.62,53.28a22.93,22.93,0,0,0-16.19,6.63q-7,6.65-8.82,11.27V55.33H220V147h15.42V94.29A26.13,26.13,0,0,1,241.64,77q6.26-7.49,17.89-7.49c.91,0,1.76,0,2.53.08a24,24,0,0,1,2.53.34V53.71c-1.66-.17-2.84-.29-3.52-.34S259.9,53.28,259.62,53.28Z"/><path d="M342.68,52.68q-19.65,0-31.29,13.69t-11.65,36.78q0,21.57,11.06,34.35t29.84,12.79q22.53,0,33.24-14.46T384.6,99.22q0-22.93-12.16-34.73A41.09,41.09,0,0,0,342.68,52.68Zm20.19,72.75h0Q357.25,137,342.08,137q-13.79,0-20.14-9.75t-6.35-24.38a50.47,50.47,0,0,1,6.35-26q6.35-10.77,20.33-10.77,15.74,0,22.17,12.66,4.06,8,4.06,20.86A58.17,58.17,0,0,1,362.87,125.43Z"/><polygon points="509.54 127.18 491.56 55.34 474.26 55.34 456.37 127.61 438.73 55.34 421.86 55.34 448.32 147.04 464.34 147.04 482.4 76.06 501.07 147.04 517.07 147.04 543.7 55.34 528.29 55.34 509.54 127.18"/><path d="M686.6,67.93V55.34H672V29.73H656.37l0,25.6H643.94V67.92h12.41v60.71A24.64,24.64,0,0,0,660.2,143q3.87,5.52,14.65,5.52a51.58,51.58,0,0,0,6.21-.34,34.6,34.6,0,0,0,5.52-1.11V134.79c-1.15.16-2.15.25-3,.29s-1.65.06-2.39.06a13.78,13.78,0,0,1-6-.95q-3.26-1.62-3.25-6.42V67.93Z"/></svg>
