<svg xmlns="http://www.w3.org/2000/svg" width="310.898" height="319.177" viewBox="0 0 310.898 319.177">
  <g id="Group_237" data-name="Group 237" transform="translate(-52.097 -56.904)">
    <g id="Group_24" data-name="Group 24" transform="translate(171.198 84.133)">
      <path id="Path_204" data-name="Path 204" d="M470.127,438.548l-.247.205.35-.184Z" transform="translate(-469.88 -438.548)" fill="none" stroke="#000" stroke-width="4"/>
    </g>
    <g id="Group_25" data-name="Group 25" transform="translate(225.586 170.923)">
      <path id="Path_205" data-name="Path 205" d="M510.324,500.026c-.583.832-1.151,1.643-1.945,2.964a29.892,29.892,0,0,0,.208,7.905c.276-.285.629-.678,1.075-1.214a24.754,24.754,0,0,1,.844-9.915Z" transform="translate(-508.244 -499.767)" fill="none" stroke="#000" stroke-width="4"/>
    </g>
    <g id="Group_26" data-name="Group 26" transform="translate(172.592 75.097)">
      <path id="Path_206" data-name="Path 206" d="M492.922,491.041c2.057,7.2,2.99,12.878,4.85,24.179a100.56,100.56,0,0,1,1.43,15.344c.017,1.348.031,2.543.037,3.667,3.241,5.814,4.793,7.569,5.373,8.087a6.55,6.55,0,0,0,1.467-2.648c-1.28-3.89-2.129-7.7-2.368-8.807-1.26-5.893-2.417-14.39-1.445-32.729.146-2.818.345-6.561.736-11.15-1.123-4.089-2.417-8.649-3.882-13.821l-.143-.5c-.812-2.872-1.008-3.463-1.35-4.5-.39-1.187-.964-2.933-2.759-8.93l-.611-2.039c-2.46-8.241-3.694-12.376-6.686-17.547-4.306-7.433-6.418-7.483-6.407-7.466a5.317,5.317,0,0,0-.832.379,7.3,7.3,0,0,1-4.885.987,6.282,6.282,0,0,1-2.053-.749,37.855,37.855,0,0,0-2.532,8.119c8.008,15.257,11.359,23,11.388,23.069C488.038,477.371,490.95,484.1,492.922,491.041Z" transform="translate(-470.864 -432.174)" fill="none" stroke="#000" stroke-width="4"/>
    </g>
    <g id="Group_27" data-name="Group 27" transform="translate(97.229 117.699)">
      <path id="Path_207" data-name="Path 207" d="M419.756,475.518l1.114-.957a45.776,45.776,0,0,1,3.14,3.975c1.5,1.164,3.034,2.465,4.569,3.869,14.551,13.3,29.945,24.063,42.311,32.708,18.4,12.863,29.7,20.763,27.081,28.48q.572-.2,1.11-.444c1.165-.52,7.05-3.384,8.506-8.674a8.892,8.892,0,0,0,.323-2.264l-.174-.088.115-1.083a13.254,13.254,0,0,0-.274-1.528c-.074-.162-.22-.5-.4-.825l-2.566-4.76.76.462C501.637,518.064,494.1,510.8,485,502.024c-6.316-6.086-8.655-7.59-12.9-10.322-4.538-2.919-10.721-6.9-24.9-18.175-5.325-4.232-18.165-12.542-23.877-11.147a8.673,8.673,0,0,0-3.876,2.1,7.245,7.245,0,0,0-1.739,4.25c-.048,1.995.988,3.295,3.151,5.814Z" transform="translate(-417.705 -462.224)" fill="none" stroke="#000" stroke-width="4"/>
    </g>
    <g id="Group_28" data-name="Group 28" transform="translate(244.892 165.954)">
      <path id="Path_208" data-name="Path 208" d="M588.454,511.974c-1.477.78-2.967,1.581-4.46,2.382l-.509.43c-1.83.977-4.656,2.494-7.882,4.249l-7.23,3.929q-1.723.974-3.37,1.922c-12.246,7.033-21.305,12.035-27.922,15.687s-11.418,6.307-13.973,8.045l-.532.378c-.313.225-.546.41-.715.553a22.74,22.74,0,0,0,6.361,1.257l.527.051c1.223.1,2.655.17,4.176.2l8.742-1.172-2.125,1.07A110.481,110.481,0,0,0,551.3,549.75a39.931,39.931,0,0,0,5.849-1.3l-.973-.173,6.022-1.768c.473-.13,1.09-.318,1.779-.554l3.1-1.277.106.023c5.2-2.03,11.272-4.368,20.165-7.615,5.876-2.144,21.477-7.84,34.207-15.89a39.033,39.033,0,0,0,11.267-13.038c.9-1.629.815-2.139.767-2.258a3.115,3.115,0,0,0-1.028-.683,5.836,5.836,0,0,1-3.327-3.543,5.914,5.914,0,0,1,1.148-4.975,15.331,15.331,0,0,0-3.9-.437c-7.035.086-12.2,2.894-16.763,5.373l-.689.374c-4.53,2.45-5.448,2.759-6.611,3.15-1.249.417-2.949.985-13.969,6.813Z" transform="translate(-521.862 -496.262)" fill="none" stroke="#000" stroke-width="4"/>
    </g>
    <g id="Group_29" data-name="Group 29" transform="translate(62.462 173.444)">
      <path id="Path_209" data-name="Path 209" d="M456.709,543.32c2.957,1.053,5.916,1.87,8.675,2.6l10.521,2.773-1.832.02c10.429,2.929,13.566,3.136,17.112,1.538a17.62,17.62,0,0,0,4.975-3.517l-.142-.033,1.445-1.844a11.63,11.63,0,0,0,1.274-1.949l.533-1.031.406.1a9.889,9.889,0,0,0,1.154-6.554,3.473,3.473,0,0,0-1.05-1.844l-.106-.006-.715-.508a6.7,6.7,0,0,0-1.666-1.4l-.295-.184a25.668,25.668,0,0,0-3.224-1.511l.1-.3c-3.178-1.725-7.807-4-14.431-7.078-10.732-5-17.289-8.055-22.581-10.166l.754.733-7.047-2.9a18.988,18.988,0,0,0-2.169-.742l-.471-.132a22.6,22.6,0,0,0-2.294-.482l-.406-.062-.315-.261,0-.006c-5.747-1.477-13.538-3.146-24.248-5.443-5.844-1.252-13.107-2.8-20.284-.112-3.173,1.191-5.369,2.835-6.35,4.755a9.358,9.358,0,0,0-.683,5.732,12.2,12.2,0,0,0,4.191,7.028,16.572,16.572,0,0,0,7.081,3.588,93.553,93.553,0,0,1,15.622,6.024l.04.017c3.442,1.571,7,3.2,10.558,4.439,9.866,3.452,17.674,6.184,25.117,8.6Z" transform="translate(-393.181 -501.545)" fill="none" stroke="#000" stroke-width="4"/>
    </g>
    <g id="Group_30" data-name="Group 30" transform="translate(54.099 219.916)">
      <path id="Path_210" data-name="Path 210" d="M395.561,556.1c6.507-2.064,9.774-3.1,11.794-3.452a89.917,89.917,0,0,1,14.944-1.228l1.212-.023c5.6-.113,10.956-.522,21.64-1.338,14.425-1.1,26.912-2.793,27.038-2.81l1.124-.154a111.127,111.127,0,0,1,20.734-1.348c5.848.2,9.745.834,12.137,1.983,2.3-1.15,2.844-2.29,3.051-3.071.744-2.791-1.289-6.527-3.68-8.776a8.874,8.874,0,0,0-1.3-1.022,23.844,23.844,0,0,1-8.379,6.631,16.048,16.048,0,0,1-6.821,1.45c-3.978,0-8.655-1.153-17.005-3.577-5.155-1.5-9.813-2.922-14.639-4.483l-1.7-.128c-2.667-.206-5.4-.417-11.7-.425a212.565,212.565,0,0,0-30.028,2.127,85.272,85.272,0,0,0-21.434,6.9c-2.1.99-4.349,2.291-5.036,4.433a6.046,6.046,0,0,0,.035,3.454,8.987,8.987,0,0,0,3.034,4.288,23.759,23.759,0,0,0,2.1,1.574C393.525,556.77,394.458,556.445,395.561,556.1Z" transform="translate(-387.283 -534.325)" fill="none" stroke="#000" stroke-width="4"/>
    </g>
    <g id="Group_31" data-name="Group 31" transform="translate(85.183 133.333)">
      <path id="Path_211" data-name="Path 211" d="M435.818,511.5c1.92,1.533,3.507,2.8,4.914,3.967,2.678.709,4.91,1.378,6.994,2.1,6.412,2.215,13.393,5.468,27.3,11.948,10.429,4.856,15.79,7.61,19.048,9.81a4.442,4.442,0,0,0,2.248-1.871c1.7-3.859-11.867-13.341-24.983-22.511-12.5-8.74-28.056-19.617-42.816-33.107l-.267-.244-.38-.561c-.7-1.921-3.561-4.172-7.468-5.879s-7.006-2.087-7.63-1.816a8.035,8.035,0,0,0-3.088,3.9,9.677,9.677,0,0,0-.274,5.158c.971,5.634,4.67,9.727,6.062,11.266,3.968,4.393,7.7,7.721,17.378,15.48Z" transform="translate(-409.208 -473.252)" fill="none" stroke="#000" stroke-width="4"/>
    </g>
    <g id="Group_32" data-name="Group 32" transform="translate(145.865 71.661)">
      <path id="Path_212" data-name="Path 212" d="M470.091,507.677c1.255,1.107,2.664,2.406,4.334,4.019,12.317,11.869,22.12,21.319,24.17,30.415a8.853,8.853,0,0,0,1.157.35,2.663,2.663,0,0,0,1.5.051c.551-.8.483-6.071.425-10.3-.028-.326-.068-.81-.14-1.361l-1.062-8.261.771,1.493c-.3-3.088-.682-5.43-.912-6.845-1.846-11.208-2.767-16.8-4.734-23.7-1.877-6.581-4.728-13.182-10.409-26.335-.149-.336-2.63-5.991-8.034-16.574l-.106.588-1.935-4.437c-.163-.384-.384-.839-.628-1.314l.76-.817-.927.5c-.281-.527-.6-1.083-.984-1.667l-.339-.515.048-.231a35.814,35.814,0,0,0-2.448-4.257c-.956-.425-2.283-1.059-6.935-7.3a3.361,3.361,0,0,0-1.575-1.248,3.765,3.765,0,0,0-1.347-.174c.075.258.173.541.233.719.451,1.338,1.205,3.573-.313,5.45-1.493,1.847-3.7,1.561-5.023,1.384a3.49,3.49,0,0,0-1.989.053s-.8.644-1.321,4.626a35.354,35.354,0,0,0,.109,10.264,153.794,153.794,0,0,0,4.162,17.609c4.327,13.053,6.5,19.6,8.873,25.809C467.279,500.395,468.8,504.364,470.091,507.677Z" transform="translate(-452.011 -429.751)" fill="none" stroke="#000" stroke-width="4"/>
    </g>
    <g id="Group_33" data-name="Group 33" transform="translate(326.233 116.091)">
      <path id="Path_213" data-name="Path 213" d="M579.237,461.09h0Z" transform="translate(-579.237 -461.09)" fill="none" stroke="#000" stroke-width="4"/>
    </g>
    <g id="Group_34" data-name="Group 34" transform="translate(245.218 217.163)">
      <path id="Path_214" data-name="Path 214" d="M522.092,532.384h0Z" transform="translate(-522.092 -532.384)" fill="none" stroke="#000" stroke-width="4"/>
    </g>
    <g id="Group_35" data-name="Group 35" transform="translate(242.365 116.091)">
      <path id="Path_215" data-name="Path 215" d="M603.948,461.09l.625,1.331c-.571.315-1,.569-1.535.883a17.131,17.131,0,0,0-1.958,1.35l-1.686,1.324c-1.009.872-1.894,1.72-2.614,2.427-34.285,33.647-51.067,55.592-51.23,55.81-6.521,8.62-11.675,15.217-15.47,20.076l-.229.293c-.149.192-.295.379-.441.564l3.533-2.417-9.151,9.788a15.705,15.705,0,0,0-1.711,2.368c-.41.646-.821,1.29-1.283,1.9l-.269.353a6.924,6.924,0,0,0-.448.907,4.329,4.329,0,0,0,1.073.241c.142.016.291.025.44.031,2.77-1.8,7.148-4.212,13.618-7.786,6.191-3.417,15.544-8.578,27.794-15.616,5.61-3.223,11.965-6.751,18.395-10.212a150.083,150.083,0,0,0,12.028-14.642c5.319-7.307,9.2-14.6,16.781-29.509a31.336,31.336,0,0,0,2.875-10.227c.288-2.762-.008-3.8-.306-4.547a7.319,7.319,0,0,0-3.941-4.026,5.577,5.577,0,0,0-3.974.53Z" transform="translate(-520.08 -461.09)" fill="none" stroke="#000" stroke-width="4"/>
    </g>
    <g id="Group_36" data-name="Group 36" transform="translate(249.382 226.002)">
      <path id="Path_216" data-name="Path 216" d="M526.377,539.924a14.861,14.861,0,0,1,3.988-1.155c-.971-.033-1.915-.082-2.823-.15-.992.523-1.822.981-2.514,1.381C525.539,539.973,526.007,539.945,526.377,539.924Z" transform="translate(-525.029 -538.618)" fill="none" stroke="#000" stroke-width="4"/>
    </g>
    <g id="Group_37" data-name="Group 37" transform="translate(209.039 60.611)">
      <path id="Path_217" data-name="Path 217" d="M498.344,529.94l1.314,8.486c.132.859.273,1.75.431,2.6a44.522,44.522,0,0,0,2.37,6.221c.035-.122.072-.242.106-.363a58.974,58.974,0,0,1,5.411-13.063l.025-.251.61-.862c.895-1.483,1.53-2.387,2.155-3.276L511,529.1l2.824-8.941v4.351c3.276-6.174,4.927-12.877,6.537-20.221q.84-3.836,1.63-7.719l-1.2,2.621,2.516-12.5c.706-3.5,1.289-6.757,1.734-9.686l.112-.381.812-1.832c.454-2.824.736-4.762.851-5.579,1.612-11.385,2.382-19.405,1.833-29.172-.4-7.192-1.584-16.094-4.939-17.657-2.616-1.221-6.2.513-6.887.876-4.729,2.467-6.443,8.018-8.852,16.876-4.588,16.856-6.883,25.29-8.289,34.5-.828,5.4-1.465,10.674-1.949,16.115l.169.621-.048.308a18.9,18.9,0,0,0-.285,3.639l.006.163-.031.16a16,16,0,0,0-.292,3.083v11.215l-.554-2.076c-.431,12.6.3,19.516,1.211,24.381Z" transform="translate(-496.572 -421.956)" fill="none" stroke="#000" stroke-width="4"/>
    </g>
    <g id="Group_38" data-name="Group 38" transform="translate(238.236 62.645)">
      <path id="Path_218" data-name="Path 218" d="M533.485,457.036c.156-.619,3.924-15.453,16.5-32.067.35-.466.695-.907,1.029-1.33a1.168,1.168,0,0,0-.424-.248h0c-1.554,0-4.644,3.876-6.691,6.441-4.116,5.156-6.312,10.105-9.843,18.409l-.244.578c-2.81,6.616-4.263,10.032-5.635,13.508-1.85,4.707-3.679,9.1-5.586,13.431-1.045,6.459-2.824,16.554-5.424,28.511C522.611,491.155,528.921,475.327,533.485,457.036Z" transform="translate(-517.167 -423.391)" fill="none" stroke="#000" stroke-width="4"/>
    </g>
    <g id="Group_39" data-name="Group 39" transform="translate(232.275 59.168)">
      <path id="Path_219" data-name="Path 219" d="M522.221,511.431c-3.849,9.223-7.3,17.487-8.675,23.636l-.549,5.1a5.965,5.965,0,0,0-.017,1.1c.02.154.047.378.086.593a3.756,3.756,0,0,0,.3.964l.376.76-.055.079a4.324,4.324,0,0,0,.939,1.189,10.79,10.79,0,0,0,6.178,2.223l.812-.125a8.349,8.349,0,0,0,2.379-.434l1.422-.475c2.152-1.2,4.42-3.5,8-7.515,9.737-10.9,14.622-16.373,17.441-20.98,2.888-4.719,5.087-9.8,8.936-19.044l-.532.593,3.517-8.238c.546-1.247,1.785-4.141,2.913-7.1l.286-.469c1.442-3.687,2.627-7.148,3.781-11.013a164.2,164.2,0,0,0,5.255-25.317,65.05,65.05,0,0,0-.238-17,26.5,26.5,0,0,0-2.163-7.721,14.784,14.784,0,0,1-1.591.3,8.251,8.251,0,0,1-3.876-.108,5.906,5.906,0,0,1-2.382-1.489c-.661.2-2.365,1-5.308,4.2l.293.6-1.048.717a4.318,4.318,0,0,0-1.358,1.457l-1.467,2.648-.289-.688c-11.35,15.235-14.955,28.924-15.106,29.506C535.339,480.012,528.067,497.432,522.221,511.431Z" transform="translate(-512.963 -420.938)" fill="none" stroke="#000" stroke-width="4"/>
    </g>
    <g id="Group_40" data-name="Group 40" transform="translate(239.957 96.859)">
      <path id="Path_220" data-name="Path 220" d="M568.425,475.05c-1.283,3.293-2.742,6.818-4.581,11.245-4.8,11.563-7.215,17.367-10.633,22.961-3.072,5.019-8.044,10.587-17.95,21.684-4.938,5.528-8.353,9.032-13.107,10.115-3.31,9.117-3.952,14.222-3.737,16.183,1.734-2.444,4.283-5.712,7.83-10.255,3.605-4.613,8.985-11.493,15.7-20.367.16-.215,16.777-22.086,51.746-56.4,1.7-1.667,5.176-5.081,9.2-6.991l1.089-1.735a25.669,25.669,0,0,0,2.161-4.782c1.025-3.027.9-4.4.678-5.253-.031-.115-.06-.22-.092-.316a6.249,6.249,0,0,1-1.13.34c-.842.167-3.706.571-5.322-1.45a3.76,3.76,0,0,1-.824-2.5,17.562,17.562,0,0,0-2.865.9c-5.832,2.325-12.24,7.626-18.042,14.923-2.885,3.632-5.981,7.069-8.978,10.39Z" transform="translate(-518.381 -447.524)" fill="none" stroke="#000" stroke-width="4"/>
    </g>
    <g id="Group_41" data-name="Group 41" transform="translate(175.995 255.447)">
      <path id="Path_221" data-name="Path 221" d="M473.436,572.466a54.171,54.171,0,0,1,5.294-4.416c.939-6.058.218-8.226-.149-8.662a1.584,1.584,0,0,1-.271.17,66.6,66.6,0,0,1-4.291,11.574c-.252.52-.5,1.021-.754,1.506C473.321,572.58,473.379,572.524,473.436,572.466Z" transform="translate(-473.264 -559.388)" fill="none" stroke="#000" stroke-width="4"/>
    </g>
    <g id="Group_42" data-name="Group 42" transform="translate(232.911 253.429)">
      <path id="Path_222" data-name="Path 222" d="M565.123,595.485c-1.539-1.9-3.078-3.789-4.639-5.664-1.8-2.154-3.388-4.118-4.809-5.923a141.733,141.733,0,0,1-13.908-7.515c-9.28-5.624-16.1-11.817-20.286-18.419h-.043a21.333,21.333,0,0,0-6.9.974,6.054,6.054,0,0,0-1.127.532c.295.414.76.994,1.1,1.424,1.033,1.282,2.162,2.732,3.431,4.639a35.844,35.844,0,0,1,7.021,7.121c4.031,5.529,4.661,10.278,5.813,18.9l.139,1.025c1.135,1.942,2.445,4.1,4.043,6.721a180.269,180.269,0,0,0,15.509,22.455c7.641,9.306,11.68,12.11,15.717,13.617a21.893,21.893,0,0,0,8.972,1.367c2.081-.13,4.232-.265,6.292-1.694A9.442,9.442,0,0,0,584.714,631c.855-2.078.861-4.422.011-7.6-1.837-6.887-6.017-11.734-10.446-16.866l-.615-.714c-2.628-3.055-5.207-6.228-7.7-9.306Z" transform="translate(-513.411 -557.964)" fill="none" stroke="#000" stroke-width="4"/>
    </g>
    <g id="Group_43" data-name="Group 43" transform="translate(221.959 262.817)">
      <path id="Path_223" data-name="Path 223" d="M533.108,614.859c-.474-1.837-1.005-3.893-1.978-9.208-1.025-5.618-1.666-10.073-2.2-14.04l-.2-.343-.023-.339a49,49,0,0,0-1-6.948l-1.343-6.263a19.068,19.068,0,0,0-2.546-4.644,29.75,29.75,0,0,0-4.717-5.054,16.863,16.863,0,0,0-1.5-1.083l-.4-.367c-2.131-1.463-3.733-1.983-4.734-1.983a1.939,1.939,0,0,0-.722.121c-2.032.822-3.183,8.2-4.779,18.406A98.782,98.782,0,0,0,505.8,593.2a118.824,118.824,0,0,0,1.182,21.494c.271,2.1.9,5.455,2.084,11.23l.288.788-.033.332c.822,4.063,1.929,9.258,3.313,15.728a75.865,75.865,0,0,0,7.492,20.944,21.409,21.409,0,0,0,3.283,4.531,8.433,8.433,0,0,1,1.446-1.143,8.026,8.026,0,0,1,4.748-1.467,5.926,5.926,0,0,1,3.344,1.252,42.791,42.791,0,0,0,2.2-9.381,125.056,125.056,0,0,0-.58-35.587A67.93,67.93,0,0,0,533.108,614.859Z" transform="translate(-505.686 -564.586)" fill="none" stroke="#000" stroke-width="4"/>
    </g>
    <g id="Group_44" data-name="Group 44" transform="translate(173.982 184.516)">
      <path id="Path_224" data-name="Path 224" d="M523.858,582.765a7.037,7.037,0,0,1,2.1-.492,4.561,4.561,0,0,1-.568-4.188c.621-1.693,2.182-3.011,4.639-3.917a22.35,22.35,0,0,1,6.039-1.178,6.771,6.771,0,0,1-.02-5.574c.988-1.941,3-3.089,6.115-3.488a12.4,12.4,0,0,1,1.3-6.263c-2.015-.143-4.1-.736-4.731-2.818-.524-1.73-.152-3.234,2.994-5.5-2.664-.967-4.191-2.352-4.639-4.2a4.231,4.231,0,0,1,.179-2.72,5.47,5.47,0,0,1-1.671-1.518,4.54,4.54,0,0,1-.686-4.3c-3.49-2.518-3.188-9.489.924-21.265a15.743,15.743,0,0,1-7.592-3.364,9.225,9.225,0,0,1-.971-.984c-2,1.85-3.706,2.365-5.454,1.735a4.768,4.768,0,0,1-2.7-2.749c-.086-.2-.166-.41-.244-.634-.322.982-.58,1.849-.8,2.572-.958,3.2-1.711,5.718-4.435,5.994l-.347.016c-1.849,0-3.488-1.375-5.067-4.293a5.85,5.85,0,0,1-3.309,1.92c-1.84.322-3.627.061-6.9-4.573a5.364,5.364,0,0,1-2.107,2.807,7.1,7.1,0,0,1-5.383.746,13.235,13.235,0,0,1-.34,1.681c-2.061,7.46-9.341,11.207-11.523,12.179A22.677,22.677,0,0,1,473,530.066c.092.282.176.574.244.882a14.837,14.837,0,0,1-1.4,9.792,13.765,13.765,0,0,1,2.1,1.629c3.566,3.351,6.557,9.012,5.2,14.1a9.554,9.554,0,0,1-4.745,5.953,7.914,7.914,0,0,1,.215,2.146,4.31,4.31,0,0,1,2.8.736c2.288,1.483,3.153,4.7,2.582,9.584a4.918,4.918,0,0,1,1.7.585c2.512,1.382,3.646,4.548,3.439,9.639,1.317-.771,2.63-1.474,3.961-2.125,5.442-2.661,10.162-4.632,12.762-1.793a3.931,3.931,0,0,1,.98,1.925h.034a3.761,3.761,0,0,1,.978.133c2.49.654,3.344,2.553,3.319,9.1,2.9-4.022,6.306-7.259,9.921-6.429a5.2,5.2,0,0,1,2.516,1.4A7.9,7.9,0,0,1,523.858,582.765Z" transform="translate(-471.844 -509.355)" fill="none" stroke="#000" stroke-width="4"/>
    </g>
    <g id="Group_45" data-name="Group 45" transform="translate(191.986 266.351)">
      <path id="Path_225" data-name="Path 225" d="M509.233,591.839a103,103,0,0,1,1.225-10.586c.6-3.838,1.111-7.072,1.622-9.8-.7-3.91-1.493-4.359-1.527-4.376-.233.009-2.6.356-9.151,12.313l-.011.163-.342.764c-.146.172-.322.4-.5.634l-.2.408c-.367.689-.74,1.385-1.128,2.139-5.3,10.307-7.144,19.135-9.928,32.5a253.692,253.692,0,0,0-4.6,34.376c-.078,1.544-.123,2.922-.146,4.148l.4-.888L484.735,661c-.023.6,0,1.146.028,1.69l.142,1.738c.042.377.082.753.149,1.076l.106.532-.138.248a27.229,27.229,0,0,1-.038,3.941,4.849,4.849,0,0,0,.2,1.82c.319,1.058,1.229,2.606,2.107,2.773a12.606,12.606,0,0,0,2.7-.56,17.744,17.744,0,0,0,1.7-.522,15.466,15.466,0,0,0,5.391-3.8c3.909-4.172,6.757-11.584,7.827-14.374a135.445,135.445,0,0,0,5.159-14.86,97.532,97.532,0,0,0,2.594-14.443c-1.255-6.062-1.917-9.632-2.216-11.911A124.327,124.327,0,0,1,509.233,591.839Z" transform="translate(-484.544 -567.079)" fill="none" stroke="#000" stroke-width="4"/>
    </g>
    <g id="Group_46" data-name="Group 46" transform="translate(58.578 236.681)">
      <path id="Path_226" data-name="Path 226" d="M476.833,567.826c4.487-3.1,9.47-6.215,17.795-11.4,3.714-2.312,6.042-3.716,7.844-4.731a6.35,6.35,0,0,0,.715-3.22l-.272-.312a1.857,1.857,0,0,0-.749-.553,4.854,4.854,0,0,0-1.352-.432l-4.653-.77q-1.646-.138-3.622-.207a106.845,106.845,0,0,0-19.778,1.3l-1.16.16c-1.384.186-13.509,1.786-27.347,2.842-10.787.822-16.2,1.236-21.953,1.355l-1.223.023a85.079,85.079,0,0,0-14.117,1.148c-1.469.254-4.245,1.11-9.056,2.635l.313.156-3.68,1.055c-.586.147-1.053.274-1.476.4-1.446.57-1.942,1.018-2.236,1.545a4.651,4.651,0,0,0-.095,3.384c.5,1.361,1.778,2.606,6.6,4.649a68.616,68.616,0,0,0,13.443,4.141,122.333,122.333,0,0,0,18.336,2.378,131.914,131.914,0,0,0,23.237-1.06c4.581-.546,10-1.44,15.25-2.522C471.052,569.08,474.1,568.443,476.833,567.826Z" transform="translate(-390.442 -546.15)" fill="none" stroke="#000" stroke-width="4"/>
    </g>
    <g id="Group_48" data-name="Group 48" transform="translate(249.618 231.257)">
      <path id="Path_228" data-name="Path 228" d="M614.21,558.287c-2.511-5.981-18.2-8.118-30.814-9.832l-1.852-.254c-6.944-.953-13.165-1.878-18.716-2.706-20.065-2.988-33.252-4.952-35.95-.781-1.34,2.091-1.972,4.3-1.558,5.379,5.4.373,12.771,1.788,21.109,3.456,9.18,1.839,16.421,3.29,26.518,6.748,4.641,1.589,9.007,3.315,12.98,5.128,5.336,1.208,8.835,2.084,11,2.756a25.472,25.472,0,0,0,9.72.917,12.807,12.807,0,0,0,5.753-1.86l0,0a9.019,9.019,0,0,0,1.992-1.564l.361-1.391a4.262,4.262,0,0,0,.319-1.825l-.043-1.615.057,0A15.946,15.946,0,0,0,614.21,558.287Z" transform="translate(-525.195 -542.325)" fill="none" stroke="#000" stroke-width="4"/>
    </g>
    <g id="Group_49" data-name="Group 49" transform="translate(263.917 219.968)">
      <path id="Path_229" data-name="Path 229" d="M625.955,545.528c-4.961-2.757-9.283-3.456-16.448-4.616l-1.2-.194c-8.023-1.306-11.755-2.027-14.476-2.555-2.888-.559-4.478-.866-8.953-1.412-4.61-.559-7.142-.746-9.594-.926-2.328-.173-4.515-.334-8.143-.78q-2.48-.3-4.963-.683l-.3.116c-7.675,3.007-9.734,3.814-15.331,4.7-2.871.455-6.921.929-11.264,1.2,6.079.413,13.93,1.582,24.048,3.089,5.554.828,11.781,1.755,18.736,2.706l1.849.255c15.417,2.1,31.364,4.267,35.065,13.089a19.452,19.452,0,0,1,1.419,4.725,23.833,23.833,0,0,0,4.379-.722c6.288-1.66,10.294-4.436,11.291-7.814a7.581,7.581,0,0,0-.008-4.066C631.417,549.4,629.531,547.514,625.955,545.528Z" transform="translate(-535.282 -534.362)" fill="none" stroke="#000" stroke-width="4"/>
    </g>
    <g id="Group_50" data-name="Group 50" transform="translate(242.99 244.297)">
      <path id="Path_230" data-name="Path 230" d="M573.146,561.573c-9.765-3.347-16.846-4.765-25.81-6.56-2.75-.55-5.58-1.114-8.339-1.628l-.014.052a80.252,80.252,0,0,0-13.328-1.781l-.647-.125c-3.978-.112-4.471.714-4.474.724-.018.05-.095.421.508,1.778q.3.676.686,1.415l.045,0,.607.777a15.36,15.36,0,0,0,1.36,2.325l1.989,2.7-.112-.013a62.3,62.3,0,0,0,15.98,13.2c1.224.74,2.409,1.44,3.568,2.107l-1.552-2.109,6.869,4.525a24.335,24.335,0,0,0,4.823,2.485l.37.147.488.62c2.739,1.235,5.21,2.227,7.914,3.3a150.118,150.118,0,0,1,16.982,7.708,31.156,31.156,0,0,0,8.892,3.169c2.363.445,7.232,1.368,12.372-.639a12.393,12.393,0,0,0,6.39-4.532,11.635,11.635,0,0,0,1.765-5.053c.17-3.877-6.478-9.042-12.085-12.693C593.846,570.522,586.282,566.069,573.146,561.573Z" transform="translate(-520.521 -551.523)" fill="none" stroke="#000" stroke-width="4"/>
    </g>
    <g id="Group_51" data-name="Group 51" transform="translate(168.704 266.839)">
      <path id="Path_231" data-name="Path 231" d="M502.939,577.7c.29-4.932.378-8.164.37-10.281-.858,1.6-1.866,3.585-2.855,5.536l-2.65,5.183c-.146.669-.274,1.313-.4,1.951a44.12,44.12,0,0,1-2.763,9.508c-2.094,5.014-5.311,9.242-11.727,17.662-.62.815-1.409,1.834-2.339,3a90.41,90.41,0,0,0-4.286,10.451,160.555,160.555,0,0,0-4.412,16.19c-1.435,6.391-2.017,10.6-2.638,15.063-2.1,15.284-.659,17.346-.35,17.606a16.369,16.369,0,0,0,2.891.929,14.874,14.874,0,0,0,1.815.288c.634.072,1.221.139,2.009.3a19.8,19.8,0,0,1,4.108,1.273l.16.065c.506-.183,2.957-1.357,6.5-7.543l-.042-.559a98.222,98.222,0,0,1-.181-14.377,260.468,260.468,0,0,1,4.694-35.143c2.879-13.834,4.779-22.96,10.426-33.923C501.819,579.811,502.379,578.749,502.939,577.7Z" transform="translate(-468.121 -567.423)" fill="none" stroke="#000" stroke-width="4"/>
    </g>
    <g id="Group_52" data-name="Group 52" transform="translate(101.15 292.987)">
      <path id="Path_232" data-name="Path 232" d="M473.523,585.867l-.011.01-4.174,4.053c-2.834,2.746-5.736,5.417-8.641,8.085-4.6,4.228-9.358,8.6-13.7,13.22l-.885.947c-4.589,4.905-11.482,12.276-18.339,15.881l-1.131,1.708c-2.655,3.962-5.16,7.7-5.987,12.739a11.378,11.378,0,0,0-.1,3.405,4.56,4.56,0,0,1,3.292,1.273,4.148,4.148,0,0,1,.793,1.11c.235-.131.513-.289.835-.488,3.336-2.05,5.009-3.078,6.433-4.646a44.406,44.406,0,0,1,4.6-4.29,19.815,19.815,0,0,1,.77-5.251,39.327,39.327,0,0,1,4.4-11.136A124.944,124.944,0,0,1,456.092,604.4C457.1,603.378,465.025,595.364,473.523,585.867Z" transform="translate(-420.471 -585.867)" fill="none" stroke="#000" stroke-width="4"/>
    </g>
    <g id="Group_53" data-name="Group 53" transform="translate(93.554 245.247)">
      <path id="Path_233" data-name="Path 233" d="M426.321,637.9l.462-.242a12.4,12.4,0,0,0,1.272-.615l.422-.254a15.7,15.7,0,0,0,2.738-2.064l7.475-7.059-1.09,1.863c2.6-2.482,4.962-5.009,6.8-6.974l.9-.958c4.457-4.748,9.3-9.2,13.983-13.5,2.867-2.637,5.735-5.274,8.525-7.986l4.182-4.055c15.139-14.683,18.291-17.738,21.454-24.279.739-1.525,1.436-3.153,2.067-4.812l.885-2.909a41.3,41.3,0,0,0,1.119-4.124l.112-.522.23-.18c.876-4.036.723-6.266.437-7.042a15.091,15.091,0,0,0-2.064.944l-.023.035-.451.265a34,34,0,0,0-4.776,2.9l-8.756,6.166,1.518-1.86c-1.633,1.019-3.14,1.962-4.546,2.85L476.3,565.7a18.935,18.935,0,0,1-4.264,2.382c-.778.533-1.677,1.144-2.562,1.755l-.189.353-.546.16c-1.8,1.266-3.521,2.526-5.264,3.884a187.7,187.7,0,0,0-15.521,13.5c-4.361,4.259-8.2,8.751-15.846,17.7a148.155,148.155,0,0,0-13.686,18.906c-2.034,3.347-4.116,7.186-3.006,10.37a6.927,6.927,0,0,0,2.016,2.862,7.845,7.845,0,0,0,5.244,1.314h.006a10.157,10.157,0,0,0,3.62-.963Z" transform="translate(-415.113 -552.193)" fill="none" stroke="#000" stroke-width="4"/>
    </g>
    <g id="Group_54" data-name="Group 54" transform="translate(119.882 349.041)">
      <path id="Path_234" data-name="Path 234" d="M433.684,625.41l0,0h0Z" transform="translate(-433.684 -625.406)" fill="none" stroke="#000" stroke-width="4"/>
    </g>
    <g id="Group_55" data-name="Group 55" transform="translate(180.188 371.909)">
      <path id="Path_235" data-name="Path 235" d="M476.222,642.942l.448-1.4-.024-.007Z" transform="translate(-476.222 -641.537)" fill="none" stroke="#000" stroke-width="4"/>
    </g>
    <g id="Group_56" data-name="Group 56" transform="translate(194.566 276.534)">
      <path id="Path_236" data-name="Path 236" d="M486.365,574.262h0Z" transform="translate(-486.364 -574.262)" fill="none" stroke="#000" stroke-width="4"/>
    </g>
    <g id="Group_57" data-name="Group 57" transform="translate(122.586 260.646)">
      <path id="Path_237" data-name="Path 237" d="M490.159,608.243c.23-.2.448-.417.671-.638.44-.58.954-1.242,1.37-1.791,3.52-4.617,5.781-7.61,7.549-10.239,1.313-2.393,2.6-4.746,3.764-6.927a39.542,39.542,0,0,0,2.176-7.769c.132-.689.272-1.391.43-2.117l.187-.732a45.436,45.436,0,0,1,3.249-9.418c.471-1.041.936-2.006,1.367-2.892.344-.716.855-1.779,1.239-2.667a43.028,43.028,0,0,0-5.539,2.365,57.118,57.118,0,0,0-7.2,4.212l-.007.023-.536.434a19.409,19.409,0,0,0-2.8,2.22l-3.549,3.4.146-.632a191,191,0,0,0-13.21,14.443c-1.351,1.595-2.7,3.186-4.174,4.885-10.546,12.157-21.58,23.236-21.689,23.344a120.637,120.637,0,0,0-13.72,17.228A36.859,36.859,0,0,0,436.2,644.5a15.691,15.691,0,0,0-.605,3.624l.493.2a5.5,5.5,0,0,1,1.126.438l.084.044.361.145-.041.041a6.479,6.479,0,0,1,2.305,2.587c.81-.164,3.288-1,9.513-5.2,6.982-4.708,10.487-7.071,12.823-8.984a151.89,151.89,0,0,0,13.793-12.912l1.1.973-1.056-1.021c5.991-6.188,10.63-11.7,13.492-15.274Z" transform="translate(-435.591 -563.055)" fill="none" stroke="#000" stroke-width="4"/>
    </g>
  </g>
</svg>
